<?xml version="1.0" encoding="UTF-8"?>
<svg id="_图层_1" data-name="图层_1" xmlns="http://www.w3.org/2000/svg" xmlns:xlink="http://www.w3.org/1999/xlink" version="1.1" viewBox="0 0 195 89">
  <!-- Generator: Adobe Illustrator 29.6.0, SVG Export Plug-In . SVG Version: 2.1.1 Build 207)  -->
  <defs>
    <style>
      .st0 {
        filter: url(#drop-shadow-1);
      }

      .st1 {
        filter: url(#drop-shadow-2);
      }

      .st2 {
        stroke-miterlimit: 10;
        stroke-width: 8.84px;
      }

      .st2, .st3 {
        fill: #00b7eb;
        stroke: #00b7eb;
      }

      .st3 {
        stroke-linecap: round;
        stroke-linejoin: round;
        stroke-width: 4.98px;
      }

      .st4 {
        fill: #fff;
      }
    </style>
    <filter id="drop-shadow-1" x="71.26" y="42.26" width="114" height="27" filterUnits="userSpaceOnUse">
      <feOffset dx=".83" dy=".83"/>
      <feGaussianBlur result="blur" stdDeviation="1.25"/>
      <feFlood flood-color="#000" flood-opacity=".5"/>
      <feComposite in2="blur" operator="in"/>
      <feComposite in="SourceGraphic"/>
    </filter>
    <filter id="drop-shadow-2" x="14.26" y="12.26" width="50" height="68" filterUnits="userSpaceOnUse">
      <feOffset dx=".83" dy=".83"/>
      <feGaussianBlur result="blur1" stdDeviation="1.25"/>
      <feFlood flood-color="#000" flood-opacity=".5"/>
      <feComposite in2="blur1" operator="in"/>
      <feComposite in="SourceGraphic"/>
    </filter>
  </defs>
  <g>
    <path class="st3" d="M75.49,59.6h2.3l-.99,3.91h-2.3l.99-3.91ZM75.5,51.23h5.78v-5.56h2.35v1.86h7.16l-.53,1.94h-6.63v1.76h6.25v5.75c0,.41-.11.75-.32,1.04-.21.29-.48.43-.79.43h-13.26v-7.22ZM87.51,56.51v-3.35h-9.63v3.35h9.63ZM81.17,59.6l.99,3.91h-2.29l-.99-3.91h2.29ZM85.55,59.6l.99,3.91h-2.29l-.99-3.91h2.29ZM89.93,59.6l.99,3.91h-2.3l-.99-3.91h2.3Z"/>
    <path class="st3" d="M93.43,56.08h2.35v5.28h3.47v-7.03h-7.03v-1.94h7.03v-2.9h-6.23v-1.94h6.23v-1.9h2.36v1.9h6.23l-.53,1.94h-5.7v2.9h7.03l-.53,1.94h-6.5v7.03h3.47v-5.28h2.35v5.73c0,.4-.11.75-.32,1.04-.22.29-.48.43-.78.43h-12.89v-7.2Z"/>
    <path class="st3" d="M110.69,59.33v-13.27h15.23v3.89c0,.4-.11.75-.33,1.04-.22.29-.48.43-.8.43h-11.74v7.91l-.72,4.19h-2.36l.72-4.19ZM123.55,49.5v-1.51h-10.5v1.51h10.5ZM113.58,57.86h2.16v-2.19h-1.95v-1.94h1.93l-.65-1.62h2.5l.65,1.62h2.79l.47-1.62h2.5l-.47,1.62h2.27l-.55,1.94h-1.58v2.19h2.29l-.53,1.94h-1.76v3.66h-2.3v-3.66h-3.43l-1.2,3.66h-2.44l1.21-3.66h-1.92v-1.94ZM121.35,57.86v-2.19h-3.32v2.19h3.32Z"/>
    <path class="st3" d="M129.45,57.74h-1.23v-1.94h2.56l.41-.59h-1.91v-6.57h2.41v-.53h-3.47v-1.94h3.47v-.51h2.29v.51h3.81v-.51h2.29v.51h3.97l-.53,1.94h-3.44v.53h2.41v5.09c0,.4-.11.75-.32,1.05-.22.29-.48.44-.8.44h-7.43l-.41.59h10.53l-.53,1.94h-1.23l1.7,2.47h-2.32v1.43l-.49,1.49h-2.29l.49-1.49v-1.06h-2.3v2.94h-2.29v-2.94h-2.41v2.54h-2.29v-2.92h-2.35l1.7-2.47ZM134.79,58.64v-.9h-2.6l-.62.9h3.22ZM140.18,51.09v-.59h-8.6v.59h8.6ZM140.18,53.38v-.65h-8.6v.65h8.6ZM137.79,48.64v-.53h-3.81v.53h3.81ZM140.15,58.64l-.62-.9h-2.45v.9h3.07Z"/>
    <path class="st3" d="M145.49,51.19h2.9v-2.99h-2.66v-1.84h5.44l.16-.68h2.14l-.56,2.52h-2.23v2.99h3.04l-.5,1.86h-.34l.5,2.58h-1.95l-.52-2.58h-.24v2.58h-2.29v-2.58h-.28l-.52,2.58h-1.95l.5-2.58h-.65v-1.86ZM145.72,56.1h7.55v5.93c0,.4-.11.75-.33,1.05-.22.29-.48.44-.78.44h-6.44v-7.42ZM147.76,48.7l.37,2.07h-1.77l-.43-2.07h1.83ZM148.51,58.84v-.8h-.59v.8h.59ZM148.51,61.58v-.8h-.59v.8h.59ZM151.13,58.84v-.8h-.61v.8h.61ZM151.13,61.58v-.8h-.61v.8h.61ZM151.26,48.7h1.83l-.43,2.07h-1.77l.37-2.07ZM155.5,47.96h-1.96v-1.94h4v15.3l-.43,2.19h-2.02l.41-2.19v-13.37ZM153.94,54.89h1.33l-.4,8.63h-1.33l.4-8.63ZM155.06,48.64l.21,5.65h-1.33l-.21-5.65h1.33ZM158.07,54.89h1.33l-.4,8.63h-1.33l.4-8.63ZM157.78,46.02h3.84v15.3l-.43,2.19h-2.02l.43-2.19v-13.37h-1.82v-1.94ZM159.21,48.64l.19,5.65h-1.33l-.19-5.65h1.33Z"/>
    <path class="st3" d="M163.3,45.9h16.29l-.53,1.94h-6.54v1.62h5.5v10.02h-2.3v-8.08h-8.74v8.08h-2.3v-10.02h5.49v-1.62h-6.85v-1.94ZM170.18,56v-3.74h2.3v4.6l-.92,1.04h2.48l4.99,5.62h-3.03l-4.71-5.3-4.65,5.3h-3.03l6.56-7.51Z"/>
  </g>
  <g class="st0">
    <path class="st4" d="M75.49,59.6h2.3l-.99,3.91h-2.3l.99-3.91ZM75.5,51.23h5.78v-5.56h2.35v1.86h7.16l-.53,1.94h-6.63v1.76h6.25v5.75c0,.41-.11.75-.32,1.04-.21.29-.48.43-.79.43h-13.26v-7.22ZM87.51,56.51v-3.35h-9.63v3.35h9.63ZM81.17,59.6l.99,3.91h-2.29l-.99-3.91h2.29ZM85.55,59.6l.99,3.91h-2.29l-.99-3.91h2.29ZM89.93,59.6l.99,3.91h-2.3l-.99-3.91h2.3Z"/>
    <path class="st4" d="M93.43,56.08h2.35v5.28h3.47v-7.03h-7.03v-1.94h7.03v-2.9h-6.23v-1.94h6.23v-1.9h2.36v1.9h6.23l-.53,1.94h-5.7v2.9h7.03l-.53,1.94h-6.5v7.03h3.47v-5.28h2.35v5.73c0,.4-.11.75-.32,1.04-.22.29-.48.43-.78.43h-12.89v-7.2Z"/>
    <path class="st4" d="M110.69,59.33v-13.27h15.23v3.89c0,.4-.11.75-.33,1.04-.22.29-.48.43-.8.43h-11.74v7.91l-.72,4.19h-2.36l.72-4.19ZM123.55,49.5v-1.51h-10.5v1.51h10.5ZM113.58,57.86h2.16v-2.19h-1.95v-1.94h1.93l-.65-1.62h2.5l.65,1.62h2.79l.47-1.62h2.5l-.47,1.62h2.27l-.55,1.94h-1.58v2.19h2.29l-.53,1.94h-1.76v3.66h-2.3v-3.66h-3.43l-1.2,3.66h-2.44l1.21-3.66h-1.92v-1.94ZM121.35,57.86v-2.19h-3.32v2.19h3.32Z"/>
    <path class="st4" d="M129.45,57.74h-1.23v-1.94h2.56l.41-.59h-1.91v-6.57h2.41v-.53h-3.47v-1.94h3.47v-.51h2.29v.51h3.81v-.51h2.29v.51h3.97l-.53,1.94h-3.44v.53h2.41v5.09c0,.4-.11.75-.32,1.05-.22.29-.48.44-.8.44h-7.43l-.41.59h10.53l-.53,1.94h-1.23l1.7,2.47h-2.32v1.43l-.49,1.49h-2.29l.49-1.49v-1.06h-2.3v2.94h-2.29v-2.94h-2.41v2.54h-2.29v-2.92h-2.35l1.7-2.47ZM134.79,58.64v-.9h-2.6l-.62.9h3.22ZM140.18,51.09v-.59h-8.6v.59h8.6ZM140.18,53.38v-.65h-8.6v.65h8.6ZM137.79,48.64v-.53h-3.81v.53h3.81ZM140.15,58.64l-.62-.9h-2.45v.9h3.07Z"/>
    <path class="st4" d="M145.49,51.19h2.9v-2.99h-2.66v-1.84h5.44l.16-.68h2.14l-.56,2.52h-2.23v2.99h3.04l-.5,1.86h-.34l.5,2.58h-1.95l-.52-2.58h-.24v2.58h-2.29v-2.58h-.28l-.52,2.58h-1.95l.5-2.58h-.65v-1.86ZM145.72,56.1h7.55v5.93c0,.4-.11.75-.33,1.05-.22.29-.48.44-.78.44h-6.44v-7.42ZM147.76,48.7l.37,2.07h-1.77l-.43-2.07h1.83ZM148.51,58.84v-.8h-.59v.8h.59ZM148.51,61.58v-.8h-.59v.8h.59ZM151.13,58.84v-.8h-.61v.8h.61ZM151.13,61.58v-.8h-.61v.8h.61ZM151.26,48.7h1.83l-.43,2.07h-1.77l.37-2.07ZM155.5,47.96h-1.96v-1.94h4v15.3l-.43,2.19h-2.02l.41-2.19v-13.37ZM153.94,54.89h1.33l-.4,8.63h-1.33l.4-8.63ZM155.06,48.64l.21,5.65h-1.33l-.21-5.65h1.33ZM158.07,54.89h1.33l-.4,8.63h-1.33l.4-8.63ZM157.78,46.02h3.84v15.3l-.43,2.19h-2.02l.43-2.19v-13.37h-1.82v-1.94ZM159.21,48.64l.19,5.65h-1.33l-.19-5.65h1.33Z"/>
    <path class="st4" d="M163.3,45.9h16.29l-.53,1.94h-6.54v1.62h5.5v10.02h-2.3v-8.08h-8.74v8.08h-2.3v-10.02h5.49v-1.62h-6.85v-1.94ZM170.18,56v-3.74h2.3v4.6l-.92,1.04h2.48l4.99,5.62h-3.03l-4.71-5.3-4.65,5.3h-3.03l6.56-7.51Z"/>
  </g>
  <g>
    <path class="st2" d="M28.95,48.02c.64-2.61,1.24-5.08,1.84-7.55,1.17-4.82,2.32-9.63,3.51-14.44.52-2.12,2.67-3.63,4.72-3.37,2.38.3,4.16,2.15,4.04,4.47-.07,1.34-.46,2.67-.76,4-.41,1.81-.87,3.6-1.31,5.4-.03.13-.02.26-.04.45,2.99-.44,4.88.8,5.73,3.72,1.52-.43,2.94-.22,4.18.77,1.24.99,1.78,2.32,1.69,3.96.69,0,1.37-.11,2.01.02,2.48.5,4.08,2.84,3.53,5.32-.76,3.44-1.63,6.86-2.49,10.28-.58,2.3-2.09,4.07-3.51,5.89-1.32,1.69-2.67,3.37-3.93,5.11-1.45,1.99-3.3,2.66-5.68,2.07-4.57-1.14-9.15-2.22-13.73-3.34-1.37-.33-2.24-1.21-2.49-2.6-1.26-7.08-3.96-13.57-8.06-19.47-.59-.85-.93-1.77-.92-2.82.02-1.93,1.24-3.62,3.11-4.26,1.76-.61,3.82-.04,4.95,1.45,1.09,1.42,2.1,2.9,3.14,4.35.11.16.24.31.45.6Z"/>
    <path class="st2" d="M39.12,15.35c-4.95,0-8.97,4.01-8.97,8.97,0,1.8.54,3.48,1.46,4.89l.8-3.02c-.17-.6-.26-1.22-.26-1.87,0-3.85,3.12-6.97,6.97-6.97s6.97,3.12,6.97,6.97c0,1.88-.75,3.59-1.96,4.84l-.52,2.91c2.68-1.55,4.48-4.44,4.48-7.76,0-4.95-4.01-8.97-8.97-8.97Z"/>
  </g>
  <g class="st1">
    <path class="st4" d="M28.95,48.02c.64-2.61,1.24-5.08,1.84-7.55,1.17-4.82,2.32-9.63,3.51-14.44.52-2.12,2.67-3.63,4.72-3.37,2.38.3,4.16,2.15,4.04,4.47-.07,1.34-.46,2.67-.76,4-.41,1.81-.87,3.6-1.31,5.4-.03.13-.02.26-.04.45,2.99-.44,4.88.8,5.73,3.72,1.52-.43,2.94-.22,4.18.77,1.24.99,1.78,2.32,1.69,3.96.69,0,1.37-.11,2.01.02,2.48.5,4.08,2.84,3.53,5.32-.76,3.44-1.63,6.86-2.49,10.28-.58,2.3-2.09,4.07-3.51,5.89-1.32,1.69-2.67,3.37-3.93,5.11-1.45,1.99-3.3,2.66-5.68,2.07-4.57-1.14-9.15-2.22-13.73-3.34-1.37-.33-2.24-1.21-2.49-2.6-1.26-7.08-3.96-13.57-8.06-19.47-.59-.85-.93-1.77-.92-2.82.02-1.93,1.24-3.62,3.11-4.26,1.76-.61,3.82-.04,4.95,1.45,1.09,1.42,2.1,2.9,3.14,4.35.11.16.24.31.45.6ZM21.83,43.82c-1.06,0-1.87.67-2.09,1.71-.17.8.18,1.43.61,2.05,4.16,6.05,6.92,12.68,8.23,19.91.11.59.41.86.99,1,4.45,1.06,8.9,2.13,13.34,3.22,1.72.42,2.28.24,3.35-1.14,1.73-2.25,3.46-4.51,5.21-6.75.86-1.11,1.56-2.3,1.9-3.66.81-3.25,1.58-6.51,2.35-9.77.28-1.2-.41-2.31-1.55-2.57-1.16-.26-2.2.41-2.51,1.64-.31,1.26-.6,2.52-.92,3.77-.2.79-.83,1.22-1.46,1.04-.73-.2-1.05-.83-.86-1.62.57-2.37,1.14-4.73,1.69-7.1.27-1.17-.39-2.33-1.44-2.6-1.23-.31-2.29.37-2.61,1.67-.51,2.06-1.01,4.12-1.53,6.17-.23.89-.82,1.27-1.55,1.06-.66-.19-.96-.87-.75-1.7.66-2.73,1.33-5.47,1.99-8.2.28-1.16-.4-2.35-1.5-2.63-1.1-.28-2.2.37-2.54,1.53-.21.71-.38,1.42-.57,2.13-.49,1.81-.97,3.62-1.46,5.43-.23.83-.82,1.19-1.55,1-.62-.16-.98-.81-.82-1.48.94-3.91,1.9-7.81,2.84-11.71.7-2.89,1.4-5.77,2.06-8.67.25-1.07-.49-2.21-1.49-2.46-1.13-.28-2.27.37-2.55,1.51-.95,3.86-1.88,7.72-2.81,11.58-.9,3.73-1.8,7.47-2.7,11.2-.2.84-.65,1.46-1.57,1.62-.92.16-1.58-.2-2.11-.96-1.24-1.78-2.52-3.53-3.78-5.3-.45-.63-1.03-.97-1.81-.96Z"/>
    <path class="st4" d="M39.12,15.35c-4.95,0-8.97,4.01-8.97,8.97,0,1.8.54,3.48,1.46,4.89l.8-3.02c-.17-.6-.26-1.22-.26-1.87,0-3.85,3.12-6.97,6.97-6.97s6.97,3.12,6.97,6.97c0,1.88-.75,3.59-1.96,4.84l-.52,2.91c2.68-1.55,4.48-4.44,4.48-7.76,0-4.95-4.01-8.97-8.97-8.97Z"/>
  </g>
</svg>