<?xml version="1.0" encoding="UTF-8"?>
<svg id="_图层_1" data-name="图层_1" xmlns="http://www.w3.org/2000/svg" xmlns:xlink="http://www.w3.org/1999/xlink" version="1.1" viewBox="0 0 182 71">
  <!-- Generator: Adobe Illustrator 29.6.0, SVG Export Plug-In . SVG Version: 2.1.1 Build 207)  -->
  <defs>
    <style>
      .st0 {
        filter: url(#drop-shadow-1);
      }

      .st1 {
        fill: #00b7eb;
        stroke: #00b7eb;
        stroke-linecap: round;
        stroke-linejoin: round;
        stroke-width: 11.16px;
      }

      .st2 {
        fill: #fff;
      }
    </style>
    <filter id="drop-shadow-1" x="6.6" y="5.6" width="173" height="58" filterUnits="userSpaceOnUse">
      <feOffset dx="1.87" dy="1.87"/>
      <feGaussianBlur result="blur" stdDeviation="2.8"/>
      <feFlood flood-color="#000" flood-opacity=".5"/>
      <feComposite in2="blur" operator="in"/>
      <feComposite in="SourceGraphic"/>
    </filter>
  </defs>
  <g>
    <path class="st1" d="M16.64,45.34v-3.42l-3.08,1.32v-4.83l3.08-1.32v-13.03h-3.08v-4.34h3.08v-6.93h5.13v6.93h3.51l-1.19,4.34h-2.32v10.79l3.01-1.32v4.83l-3.01,1.32v6.5l-1.99,6.63h-5.37l2.22-7.46ZM25.12,38.5h9.94v-1.67h5.17v1.67h9.94l-1.19,4.3h-8.75v10h-5.17v-10h-9.94v-4.3ZM28.13,44.2h5.4l-2.95,8.6h-5.4l2.95-8.6ZM25.68,25.29h11.46v7.24c0,.91-.25,1.68-.75,2.33-.5.64-1.09.97-1.77.97h-8.94v-10.53ZM27.9,13.57h19.38v6.93c0,.94-.24,1.73-.73,2.37-.49.64-1.07.97-1.76.97h-16.89v-10.27ZM32.21,31.78v-2.46h-1.66v2.46h1.66ZM42.14,19.76v-2.15h-9.08v2.15h9.08ZM38.07,25.29h11.43v7.24c0,.91-.24,1.68-.73,2.33-.49.64-1.07.97-1.76.97h-8.94v-10.53ZM47.15,44.2l2.92,8.6h-5.4l-2.92-8.6h5.4ZM44.6,31.78v-2.46h-1.66v2.46h1.66Z"/>
    <path class="st1" d="M58.01,12.78h5.17l-3.58,12.64h2.75v27.38h-5.27v-23.39h-3.78l4.7-16.63ZM67.12,12.78h5.37l-1.46,5.09h19.11l-1.29,4.34h-13.61v6.85h12.75l-1.26,4.34h-11.49v7.24h13.42l-1.26,4.34h-12.16v7.81h-5.3v-30.59h-5.5l2.68-9.43Z"/>
    <path class="st1" d="M118.93,17.92h-14.91l-5.6,13.38h-5.37l7.42-17.73h22l7.42,17.73h-5.37l-5.6-13.38ZM102.04,37.97v-11.45h5.37v13.12l-5.07,13.16h-6l5.7-14.83ZM116.45,26.52h5.33v26.29h-5.33v-26.29Z"/>
    <path class="st1" d="M138.81,30.25h-5.76l6.43-17.47h5.37l-4.84,13.12h5.8l-5.17,13.74h5.17l-1.19,4.34h-11l5.2-13.74ZM133.27,48.46l12.16-1.27v4.34l-12.16,1.27v-4.34ZM149.84,21.74v-3.82h-3.45v-4.34h22.46v14.96c0,.91-.24,1.68-.71,2.33-.48.64-1.07.98-1.77,1.01h-8.68l-1.19-4.34h7.19v-9.61h-8.71v4.96l-3.08,9h-5.53l3.48-10.14ZM147.29,34.64h20.84v14.83c0,.91-.24,1.68-.71,2.33-.48.64-1.07.98-1.77,1.01h-18.35v-18.17ZM162.85,48.46v-9.35h-10.33v9.35h10.33Z"/>
  </g>
  <g class="st0">
    <path class="st2" d="M16.64,45.34v-3.42l-3.08,1.32v-4.83l3.08-1.32v-13.03h-3.08v-4.34h3.08v-6.93h5.13v6.93h3.51l-1.19,4.34h-2.32v10.79l3.01-1.32v4.83l-3.01,1.32v6.5l-1.99,6.63h-5.37l2.22-7.46ZM25.12,38.5h9.94v-1.67h5.17v1.67h9.94l-1.19,4.3h-8.75v10h-5.17v-10h-9.94v-4.3ZM28.13,44.2h5.4l-2.95,8.6h-5.4l2.95-8.6ZM25.68,25.29h11.46v7.24c0,.91-.25,1.68-.75,2.33-.5.64-1.09.97-1.77.97h-8.94v-10.53ZM27.9,13.57h19.38v6.93c0,.94-.24,1.73-.73,2.37-.49.64-1.07.97-1.76.97h-16.89v-10.27ZM32.21,31.78v-2.46h-1.66v2.46h1.66ZM42.14,19.76v-2.15h-9.08v2.15h9.08ZM38.07,25.29h11.43v7.24c0,.91-.24,1.68-.73,2.33-.49.64-1.07.97-1.76.97h-8.94v-10.53ZM47.15,44.2l2.92,8.6h-5.4l-2.92-8.6h5.4ZM44.6,31.78v-2.46h-1.66v2.46h1.66Z"/>
    <path class="st2" d="M58.01,12.78h5.17l-3.58,12.64h2.75v27.38h-5.27v-23.39h-3.78l4.7-16.63ZM67.12,12.78h5.37l-1.46,5.09h19.11l-1.29,4.34h-13.61v6.85h12.75l-1.26,4.34h-11.49v7.24h13.42l-1.26,4.34h-12.16v7.81h-5.3v-30.59h-5.5l2.68-9.43Z"/>
    <path class="st2" d="M118.93,17.92h-14.91l-5.6,13.38h-5.37l7.42-17.73h22l7.42,17.73h-5.37l-5.6-13.38ZM102.04,37.97v-11.45h5.37v13.12l-5.07,13.16h-6l5.7-14.83ZM116.45,26.52h5.33v26.29h-5.33v-26.29Z"/>
    <path class="st2" d="M138.81,30.25h-5.76l6.43-17.47h5.37l-4.84,13.12h5.8l-5.17,13.74h5.17l-1.19,4.34h-11l5.2-13.74ZM133.27,48.46l12.16-1.27v4.34l-12.16,1.27v-4.34ZM149.84,21.74v-3.82h-3.45v-4.34h22.46v14.96c0,.91-.24,1.68-.71,2.33-.48.64-1.07.98-1.77,1.01h-8.68l-1.19-4.34h7.19v-9.61h-8.71v4.96l-3.08,9h-5.53l3.48-10.14ZM147.29,34.64h20.84v14.83c0,.91-.24,1.68-.71,2.33-.48.64-1.07.98-1.77,1.01h-18.35v-18.17ZM162.85,48.46v-9.35h-10.33v9.35h10.33Z"/>
  </g>
</svg>