<?xml version="1.0" encoding="UTF-8"?>
<svg id="_图层_1" data-name="图层_1" xmlns="http://www.w3.org/2000/svg" xmlns:xlink="http://www.w3.org/1999/xlink" version="1.1" viewBox="0 0 208.08 108.15">
  <!-- Generator: Adobe Illustrator 29.6.0, SVG Export Plug-In . SVG Version: 2.1.1 Build 207)  -->
  <defs>
    <filter id="drop-shadow-1" x="6.45" y="6.4" width="191" height="95" filterUnits="userSpaceOnUse">
      <feOffset dx=".83" dy=".83"/>
      <feGaussianBlur result="blur" stdDeviation="1.25"/>
      <feFlood flood-color="#000" flood-opacity=".5"/>
      <feComposite in2="blur" operator="in"/>
      <feComposite in="SourceGraphic"/>
    </filter>
  </defs>
  <g>
    <path d="M39.52,34.97v9.29c0,.84-.23,1.57-.68,2.18-.45.61-.99.92-1.63.92H14.73v-12.3l-3.97.98v-4.11l8.21-2.04-5.26-1.3v-4.11l13.56,3.38,8.73-2.2v-1.79H13.29l.83-4.16h-3.14v-7.41h13.53l-.34-2.08h5.53l.34,2.08h13.28v6.96h-4.7v-2.93H15.75v1.34h3.57l-.43,2.16h21.92v8.76l-5.26,1.3,8.21,2.04v4.11l-4.24-1.06ZM38.65,34.77l-11.38-2.81-11.41,2.81h22.79ZM34.75,43.33v-4.52h-15.25v4.52h15.25Z" style="fill: #00b7eb; stroke: #00b7eb; stroke-linecap: round; stroke-linejoin: round; stroke-width: 4.98px;"/>
    <path d="M48.83,13.18h13.65l-.55-2.97h5.17l.58,2.97h12.79v13c0,.84-.23,1.57-.68,2.18-.45.61-1,.92-1.66.92h-24.54v11.16l-1.84,6.92h-4.77l1.84-6.92V13.18ZM75.71,25.24v-8.02h-22.11v8.02h22.11Z" style="fill: #00b7eb; stroke: #00b7eb; stroke-linecap: round; stroke-linejoin: round; stroke-width: 4.98px;"/>
    <path d="M89.21,10.57l3.41,8.51h-5.1l-3.41-8.51h5.1ZM89.21,20.88l3.41,8.51h-5.1l-3.41-8.51h5.1ZM87.7,36.11v-4.72h4.92v5.25l-3.41,10.71h-5.1l3.6-11.24ZM93.6,12.16h4.64v-1.91h4.64v1.91h5.2v-1.91h4.64v1.91h5.17l-1.05,4.03h-4.12v2.16h-4.64v-2.16h-5.2v2.16h-4.64v-2.16h-4.64v-4.03ZM93.6,19.54h24.29l-1.05,4.03h-5.9v2.4h6.09v17.39l-.43,3.99h-4.8l.46-3.99v-13.08h-1.72v3.46l-.52,2.53,1.78,1.14v5.09l-2.74-1.71-.74,3.46h-4.12l.55-2.61-1.66-1.06-.77,3.67h-3.63v3.1h-4.77v-21.39h6.09v-2.4h-6.43v-4.03ZM100.43,33.75v-3.46h-1.72v11.65l1.72-8.19ZM105.72,37.17l.71-3.42v-3.46h-1.88v3.46l-.49,2.36,1.66,1.06ZM106.58,25.97v-2.4h-2.18v2.4h2.18Z" style="fill: #00b7eb; stroke: #00b7eb; stroke-linecap: round; stroke-linejoin: round; stroke-width: 4.98px;"/>
    <path d="M121.12,17.87h8.03l-.83-2.16h-5.17v-3.87h11.93l-.31-1.63h4.98l.31,1.63h12.42l-1.05,3.87h-4.06l-.83,2.16h8l-1.05,3.83h-32.38v-3.83ZM123.21,43.08v-4.97h4.8v4.97l-.95,4.28h-4.8l.95-4.28ZM124.51,22.88h26.69v10.59c0,.84-.23,1.56-.68,2.16-.45.6-.99.9-1.63.9h-24.38v-13.65ZM146.31,28.01v-1.3h-16.91v1.3h16.91ZM146.31,32.69v-1.3h-16.91v1.3h16.91ZM130.69,37.74h4.89v5.58h10.42l-1.11,4.03h-11.9c-.64,0-1.18-.31-1.63-.92-.45-.61-.68-1.34-.68-2.18v-6.52ZM134.35,17.87h7.01l.83-2.16h-8.67l.83,2.16ZM138.31,38.11h4.77v1.87l.34,1.91h-4.77l-.34-1.91v-1.87ZM147.14,38.11h4.8v4.85l.95,4.4h-4.8l-.95-4.4v-4.85Z" style="fill: #00b7eb; stroke: #00b7eb; stroke-linecap: round; stroke-linejoin: round; stroke-width: 4.98px;"/>
    <path d="M171.46,26.83h-6.09l-2.09,7.58h-4.77l2.12-7.66h4.58l7.1-10.06h-14.51v-4.03h14.82l-.61-2.44h5.07l.61,2.44h14.05l-1.11,4.03h-13.1l-4.3,6.11h1.2l2.34-3.18h5.23l-5.17,7.01h4.67l2.31,7.78h-17.96l5.6-7.58ZM157.81,38.6h14.54v-2.65h4.8v2.65h14.61l-1.11,4.03h-13.5v4.72h-4.8v-4.72h-14.54v-4.03ZM163.5,17.95l1.91,6.88h-4.77l-1.91-6.88h4.77ZM177.55,30.37l-1.01-3.34-2.46,3.34h3.47ZM185.24,17.95h4.77l-1.91,6.88h-4.77l1.91-6.88ZM188.09,26.75l2.12,7.66h-4.77l-2.12-7.66h4.77Z" style="fill: #00b7eb; stroke: #00b7eb; stroke-linecap: round; stroke-linejoin: round; stroke-width: 4.98px;"/>
    <path d="M35.92,92.21h3.41v-28.35h-13.93v19.76l-.89,12.63h-4.8l.15-2.24-6.3,2.24v-23.67h-3.41v-4.03h8.18v21.79l1.88-.65.43-6.07v-23.79h23.46v33.32c0,.87-.23,1.6-.68,2.2-.45.6-1,.9-1.66.9h-4.74l-1.11-4.03ZM16.76,59.09l2.46,6.97h-4.86l-2.46-6.97h4.86ZM26.26,73.55h3.72v-2.36h-3.32v-4.03h3.32v-2.04h4.98v2.04h3.66l-1.11,4.03h-2.55v2.36h4.06l-1.11,4.03h-11.65v-4.03ZM27.15,79.25h10.58v9.29c0,.84-.23,1.57-.68,2.18-.45.61-1,.92-1.66.92h-8.24v-12.38ZM33.37,87.77v-4.68h-1.84v4.68h1.84Z" style="fill: #00b7eb; stroke: #00b7eb; stroke-linecap: round; stroke-linejoin: round; stroke-width: 4.98px;"/>
    <path d="M47.23,92.21h33.92l-1.11,4.03h-32.81v-4.03ZM53.23,65.73h-5.29v-4.03h13.71v-2.61h4.8v2.61h13.99l-1.11,4.03h-4.46l5.93,8.55h-3.63v12.71c0,.84-.23,1.56-.68,2.16-.45.6-1,.9-1.66.9h-23.92v-15.76h-3.63l5.93-8.55ZM74.51,72.94l-5.01-7.21h-3.04v5.91h-4.8v-5.91h-3.04l-5.01,7.21h20.91ZM72.39,79.5v-2.53h-16.67v2.53h16.67ZM72.39,86.06v-2.53h-16.67v2.53h16.67Z" style="fill: #00b7eb; stroke: #00b7eb; stroke-linecap: round; stroke-linejoin: round; stroke-width: 4.98px;"/>
  </g>
  <g style="filter: url(#drop-shadow-1);">
    <path d="M39.52,34.97v9.29c0,.84-.23,1.57-.68,2.18-.45.61-.99.92-1.63.92H14.73v-12.3l-3.97.98v-4.11l8.21-2.04-5.26-1.3v-4.11l13.56,3.38,8.73-2.2v-1.79H13.29l.83-4.16h-3.14v-7.41h13.53l-.34-2.08h5.53l.34,2.08h13.28v6.96h-4.7v-2.93H15.75v1.34h3.57l-.43,2.16h21.92v8.76l-5.26,1.3,8.21,2.04v4.11l-4.24-1.06ZM38.65,34.77l-11.38-2.81-11.41,2.81h22.79ZM34.75,43.33v-4.52h-15.25v4.52h15.25Z" style="fill: #fff;"/>
    <path d="M48.83,13.18h13.65l-.55-2.97h5.17l.58,2.97h12.79v13c0,.84-.23,1.57-.68,2.18-.45.61-1,.92-1.66.92h-24.54v11.16l-1.84,6.92h-4.77l1.84-6.92V13.18ZM75.71,25.24v-8.02h-22.11v8.02h22.11Z" style="fill: #fff;"/>
    <path d="M89.21,10.57l3.41,8.51h-5.1l-3.41-8.51h5.1ZM89.21,20.88l3.41,8.51h-5.1l-3.41-8.51h5.1ZM87.7,36.11v-4.72h4.92v5.25l-3.41,10.71h-5.1l3.6-11.24ZM93.6,12.16h4.64v-1.91h4.64v1.91h5.2v-1.91h4.64v1.91h5.17l-1.05,4.03h-4.12v2.16h-4.64v-2.16h-5.2v2.16h-4.64v-2.16h-4.64v-4.03ZM93.6,19.54h24.29l-1.05,4.03h-5.9v2.4h6.09v17.39l-.43,3.99h-4.8l.46-3.99v-13.08h-1.72v3.46l-.52,2.53,1.78,1.14v5.09l-2.74-1.71-.74,3.46h-4.12l.55-2.61-1.66-1.06-.77,3.67h-3.63v3.1h-4.77v-21.39h6.09v-2.4h-6.43v-4.03ZM100.43,33.75v-3.46h-1.72v11.65l1.72-8.19ZM105.72,37.17l.71-3.42v-3.46h-1.88v3.46l-.49,2.36,1.66,1.06ZM106.58,25.97v-2.4h-2.18v2.4h2.18Z" style="fill: #fff;"/>
    <path d="M121.12,17.87h8.03l-.83-2.16h-5.17v-3.87h11.93l-.31-1.63h4.98l.31,1.63h12.42l-1.05,3.87h-4.06l-.83,2.16h8l-1.05,3.83h-32.38v-3.83ZM123.21,43.08v-4.97h4.8v4.97l-.95,4.28h-4.8l.95-4.28ZM124.51,22.88h26.69v10.59c0,.84-.23,1.56-.68,2.16-.45.6-.99.9-1.63.9h-24.38v-13.65ZM146.31,28.01v-1.3h-16.91v1.3h16.91ZM146.31,32.69v-1.3h-16.91v1.3h16.91ZM130.69,37.74h4.89v5.58h10.42l-1.11,4.03h-11.9c-.64,0-1.18-.31-1.63-.92-.45-.61-.68-1.34-.68-2.18v-6.52ZM134.35,17.87h7.01l.83-2.16h-8.67l.83,2.16ZM138.31,38.11h4.77v1.87l.34,1.91h-4.77l-.34-1.91v-1.87ZM147.14,38.11h4.8v4.85l.95,4.4h-4.8l-.95-4.4v-4.85Z" style="fill: #fff;"/>
    <path d="M171.46,26.83h-6.09l-2.09,7.58h-4.77l2.12-7.66h4.58l7.1-10.06h-14.51v-4.03h14.82l-.61-2.44h5.07l.61,2.44h14.05l-1.11,4.03h-13.1l-4.3,6.11h1.2l2.34-3.18h5.23l-5.17,7.01h4.67l2.31,7.78h-17.96l5.6-7.58ZM157.81,38.6h14.54v-2.65h4.8v2.65h14.61l-1.11,4.03h-13.5v4.72h-4.8v-4.72h-14.54v-4.03ZM163.5,17.95l1.91,6.88h-4.77l-1.91-6.88h4.77ZM177.55,30.37l-1.01-3.34-2.46,3.34h3.47ZM185.24,17.95h4.77l-1.91,6.88h-4.77l1.91-6.88ZM188.09,26.75l2.12,7.66h-4.77l-2.12-7.66h4.77Z" style="fill: #fff;"/>
    <path d="M35.92,92.21h3.41v-28.35h-13.93v19.76l-.89,12.63h-4.8l.15-2.24-6.3,2.24v-23.67h-3.41v-4.03h8.18v21.79l1.88-.65.43-6.07v-23.79h23.46v33.32c0,.87-.23,1.6-.68,2.2-.45.6-1,.9-1.66.9h-4.74l-1.11-4.03ZM16.76,59.09l2.46,6.97h-4.86l-2.46-6.97h4.86ZM26.26,73.55h3.72v-2.36h-3.32v-4.03h3.32v-2.04h4.98v2.04h3.66l-1.11,4.03h-2.55v2.36h4.06l-1.11,4.03h-11.65v-4.03ZM27.15,79.25h10.58v9.29c0,.84-.23,1.57-.68,2.18-.45.61-1,.92-1.66.92h-8.24v-12.38ZM33.37,87.77v-4.68h-1.84v4.68h1.84Z" style="fill: #fff;"/>
    <path d="M47.23,92.21h33.92l-1.11,4.03h-32.81v-4.03ZM53.23,65.73h-5.29v-4.03h13.71v-2.61h4.8v2.61h13.99l-1.11,4.03h-4.46l5.93,8.55h-3.63v12.71c0,.84-.23,1.56-.68,2.16-.45.6-1,.9-1.66.9h-23.92v-15.76h-3.63l5.93-8.55ZM74.51,72.94l-5.01-7.21h-3.04v5.91h-4.8v-5.91h-3.04l-5.01,7.21h20.91ZM72.39,79.5v-2.53h-16.67v2.53h16.67ZM72.39,86.06v-2.53h-16.67v2.53h16.67Z" style="fill: #fff;"/>
  </g>
</svg>