<?xml version="1.0" encoding="UTF-8"?>
<svg id="_图层_1" data-name="图层_1" xmlns="http://www.w3.org/2000/svg" xmlns:xlink="http://www.w3.org/1999/xlink" version="1.1" viewBox="0 0 124.44 100">
  <!-- Generator: Adobe Illustrator 29.6.0, SVG Export Plug-In . SVG Version: 2.1.1 Build 207)  -->
  <defs>
    <filter id="drop-shadow-1" x="8.87" y="44.61" width="74" height="31" filterUnits="userSpaceOnUse">
      <feOffset dx=".96" dy=".96"/>
      <feGaussianBlur result="blur" stdDeviation=".69"/>
      <feFlood flood-color="#000" flood-opacity=".5"/>
      <feComposite in2="blur" operator="in"/>
      <feComposite in="SourceGraphic"/>
    </filter>
    <filter id="drop-shadow-2" x="30.87" y="61.61" width="92" height="33" filterUnits="userSpaceOnUse">
      <feOffset dx=".96" dy=".96"/>
      <feGaussianBlur result="blur1" stdDeviation=".69"/>
      <feFlood flood-color="#000" flood-opacity=".5"/>
      <feComposite in2="blur1" operator="in"/>
      <feComposite in="SourceGraphic"/>
    </filter>
    <filter id="drop-shadow-3" x="36.87" y="12.61" width="72" height="38" filterUnits="userSpaceOnUse">
      <feOffset dx=".96" dy=".96"/>
      <feGaussianBlur result="blur2" stdDeviation=".69"/>
      <feFlood flood-color="#000" flood-opacity=".5"/>
      <feComposite in2="blur2" operator="in"/>
      <feComposite in="SourceGraphic"/>
    </filter>
  </defs>
  <g>
    <path d="M10.31,69.01l6.84-.78v-1.17l-5.93.68v-1.92l5.93-.68v-1.07l-6.44.73.88-3.11,2.26-.26-.32,1.13,3.63-.41v-1.03l2.33-.27v1.03l6.34-.72-.52,1.98-5.82.66v1.07l5.85-.67-.52,1.98-5.32.61v1.17l6.84-.78-.52,1.98-15.48,1.77v-1.92ZM11.58,53.33l13.55-1.54v6.24c0,.4-.11.76-.32,1.08-.21.32-.47.49-.77.53l-12.45,1.42v-7.72ZM22.86,54.98v-1.01l-9.03,1.03v1.01l9.03-1.03ZM22.86,57.84v-1.01l-9.03,1.03v1.01l9.03-1.03Z" style="fill: #00b7eb; stroke: #00b7eb; stroke-linecap: round; stroke-linejoin: round; stroke-width: 5.48px;"/>
    <path d="M27.78,64.71l6.79-.77v-1.17l-5.64.64v-7.91l5.64-.64v-4.35l2.32-.26v1.28l6.93-.79-.52,1.97-6.4.73v1.17l5.74-.66v6.45c0,.4-.11.76-.32,1.07-.21.31-.47.48-.77.52l-4.65.53v1.17l6.93-.79-.52,1.99-6.4.73v2.31l-2.32.26v-2.31l-6.79.77v-1.92ZM40.33,57.19v-1.09l-9.1,1.04v1.09l9.1-1.04ZM40.33,60.18v-1.07l-9.1,1.04v1.07l9.1-1.04Z" style="fill: #00b7eb; stroke: #00b7eb; stroke-linecap: round; stroke-linejoin: round; stroke-width: 5.48px;"/>
    <path d="M59.14,59.46v4.43c0,.4-.11.76-.32,1.08-.21.32-.47.49-.77.53l-10.66,1.21v-5.87l-1.88.68v-1.96l3.89-1.42-2.49-.34v-1.96l6.43.88,4.14-1.52v-.86l-10.77,1.23.39-2.03-1.49.17v-3.54l6.42-.73-.16-.97,2.62-.3.16.97,6.3-.72v3.33l-2.23.25v-1.4l-10.85,1.24v.64l1.69-.19-.2,1.05,10.4-1.19v4.18l-2.49.91,3.89.53v1.96l-2.01-.28ZM58.73,59.41l-5.4-.73-5.41,1.96,10.8-1.23ZM56.88,63.7v-2.16l-7.23.82v2.16l7.23-.82Z" style="fill: #00b7eb; stroke: #00b7eb; stroke-linecap: round; stroke-linejoin: round; stroke-width: 5.48px;"/>
    <path d="M63.56,48.55l6.47-.74-.26-1.39,2.45-.28.28,1.39,6.06-.69v6.2c0,.4-.11.76-.32,1.08-.21.32-.48.49-.79.53l-11.63,1.33v5.33l-.88,3.41-2.26.26.88-3.41v-13.01ZM76.3,52.86v-3.83l-10.48,1.2v3.83l10.48-1.2Z" style="fill: #00b7eb; stroke: #00b7eb; stroke-linecap: round; stroke-linejoin: round; stroke-width: 5.48px;"/>
  </g>
  <g>
    <path d="M35.2,72.25l1.62,3.88-2.42.28-1.62-3.88,2.42-.28ZM35.2,77.17l1.62,3.88-2.42.28-1.62-3.88,2.42-.28ZM34.48,84.52v-2.25l2.33-.27v2.51l-1.62,5.3-2.42.28,1.71-5.56ZM37.28,72.77l2.2-.25v-.91l2.2-.25v.91l2.46-.28v-.91l2.2-.25v.91l2.45-.28-.5,1.98-1.95.22v1.03l-2.2.25v-1.03l-2.46.28v1.03l-2.2.25v-1.03l-2.2.25v-1.92ZM37.28,76.29l11.52-1.31-.5,1.98-2.8.32v1.15l2.89-.33v8.3l-.2,1.93-2.27.26.22-1.93v-6.24l-.82.09v1.65l-.25,1.23.85.45v2.43l-1.3-.67-.35,1.69-1.95.22.26-1.27-.79-.42-.36,1.79-1.72.2v1.48l-2.26.26v-10.21l2.89-.33v-1.15l-3.05.35v-1.92ZM40.52,82.71v-1.65l-.82.09v5.56l.82-4ZM43.03,84.05l.33-1.67v-1.65l-.89.1v1.65l-.23,1.15.79.42ZM43.44,78.66v-1.15l-1.04.12v1.15l1.04-.12Z" style="fill: #00b7eb; stroke: #00b7eb; stroke-linecap: round; stroke-linejoin: round; stroke-width: 5.48px;"/>
    <path d="M50.33,74.01l3.81-.43-.39-.99-2.45.28v-1.85l5.66-.64-.15-.76,2.36-.27.15.76,5.89-.67-.5,1.9-1.92.22-.39,1.08,3.79-.43-.5,1.88-15.35,1.75v-1.83ZM51.33,85.93v-2.37l2.27-.26v2.37l-.45,2.09-2.27.26.45-2.09ZM51.94,76.21l12.66-1.44v5.05c0,.4-.11.76-.32,1.07-.21.31-.47.48-.77.52l-11.56,1.32v-6.51ZM62.28,77.49v-.62l-8.02.91v.62l8.02-.91ZM62.28,79.72v-.62l-8.02.91v.62l8.02-.91ZM54.87,82.98l2.32-.26v2.66l4.94-.56-.52,1.98-5.64.64c-.3.03-.56-.08-.77-.35-.21-.27-.32-.6-.32-1v-3.11ZM56.6,73.29l3.32-.38.39-1.08-4.11.47.39.99ZM58.48,82.74l2.26-.26v.89l.16.9-2.26.26-.16-.9v-.89ZM62.67,82.26l2.27-.26v2.31l.45,2.05-2.27.26-.45-2.05v-2.31Z" style="fill: #00b7eb; stroke: #00b7eb; stroke-linecap: round; stroke-linejoin: round; stroke-width: 5.48px;"/>
    <path d="M74.2,75.56l-2.89.33-.99,3.73-2.26.26,1.01-3.77,2.17-.25,3.37-5.19-6.88.79v-1.92l7.03-.8-.29-1.13,2.41-.27.29,1.13,6.66-.76-.52,1.98-6.21.71-2.04,3.15.57-.06,1.11-1.64,2.48-.28-2.45,3.62,2.22-.25,1.09,3.59-8.52.97,2.65-3.92ZM67.73,81.92l6.9-.79v-1.26l2.27-.26v1.26l6.93-.79-.52,1.99-6.4.73v2.26l-2.27.26v-2.26l-6.9.79v-1.92ZM70.43,71.76l.9,3.18-2.26.26-.9-3.18,2.26-.26ZM77.09,76.92l-.48-1.54-1.17,1.73,1.65-.19ZM80.73,70.58l2.26-.26-.9,3.39-2.26.26.9-3.39ZM82.09,74.62l1.01,3.54-2.26.26-1.01-3.54,2.26-.26Z" style="fill: #00b7eb; stroke: #00b7eb; stroke-linecap: round; stroke-linejoin: round; stroke-width: 5.48px;"/>
    <path d="M97.41,80.79l1.62-.18v-13.53l-6.61.75v9.43l-.42,6.08-2.27.26.07-1.08-2.99,1.41v-11.3l-1.62.18v-1.92l3.88-.44v10.4l.89-.41.2-2.92v-11.35l11.12-1.27v15.9c0,.41-.11.78-.32,1.09-.21.31-.48.48-.79.52l-2.25.26-.52-1.86ZM88.33,66.02l1.17,3.19-2.3.26-1.17-3.19,2.3-.26ZM92.84,72.41l1.76-.2v-1.13l-1.57.18v-1.92l1.57-.18v-.97l2.36-.27v.97l1.74-.2-.52,1.98-1.21.14v1.13l1.92-.22-.52,1.98-5.53.63v-1.92ZM93.26,75.08l5.02-.57v4.43c0,.4-.11.76-.32,1.08-.21.32-.48.49-.79.53l-3.91.45v-5.91ZM96.2,78.81v-2.24l-.87.1v2.24l.87-.1Z" style="fill: #00b7eb; stroke: #00b7eb; stroke-linecap: round; stroke-linejoin: round; stroke-width: 5.48px;"/>
    <path d="M102.78,80.18l16.08-1.83-.52,1.98-15.56,1.77v-1.92ZM105.62,67.22l-2.51.29v-1.92l6.5-.74v-1.24l2.27-.26v1.24l6.63-.76-.52,1.98-2.11.24,2.81,3.76-1.72.2v6.07c0,.4-.11.76-.32,1.07-.21.31-.48.48-.79.52l-11.34,1.29v-7.52l-1.72.2,2.81-4.4ZM115.71,69.51l-2.38-3.17-1.44.16v2.82l-2.27.26v-2.82l-1.44.16-2.38,3.71,9.92-1.13ZM114.71,72.75v-1.21l-7.9.9v1.21l7.9-.9ZM114.71,75.88v-1.21l-7.9.9v1.21l7.9-.9Z" style="fill: #00b7eb; stroke: #00b7eb; stroke-linecap: round; stroke-linejoin: round; stroke-width: 5.48px;"/>
  </g>
  <g>
    <path d="M38.89,45.51c-.32-.38-.47-.86-.47-1.46v-12.15l11.01-1.25v-7.31l-11.09,1.27v-2.78l14.39-1.64v10.74c0,.58-.15,1.1-.46,1.56-.31.46-.69.71-1.14.76l-9.41,1.07v8.72l11.33-1.29-.65,2.86-12.36,1.41c-.44.05-.81-.11-1.13-.49Z" style="fill: #00b7eb; stroke: #00b7eb; stroke-linecap: round; stroke-linejoin: round; stroke-width: 5.48px;"/>
    <path d="M55.57,19.82l15.02-1.71v22.27c0,.6-.15,1.12-.46,1.57-.31.45-.68.7-1.12.75l-13.44,1.53v-24.41ZM67.32,40.11v-18.84l-8.48.97v18.84l8.48-.97Z" style="fill: #00b7eb; stroke: #00b7eb; stroke-linecap: round; stroke-linejoin: round; stroke-width: 5.48px;"/>
    <path d="M73.67,41.54c-.32-.38-.47-.86-.47-1.46v-12.15l11.01-1.26v-7.31l-11.09,1.26v-2.78l14.39-1.64v10.74c0,.58-.15,1.1-.46,1.56s-.69.71-1.14.76l-9.41,1.07v8.72l11.33-1.29-.65,2.86-12.36,1.41c-.44.05-.81-.12-1.13-.49Z" style="fill: #00b7eb; stroke: #00b7eb; stroke-linecap: round; stroke-linejoin: round; stroke-width: 5.48px;"/>
    <path d="M90.35,37.48l10.82-1.23v-8.72l-9.22,1.05c-.44.05-.81-.12-1.13-.5-.32-.39-.47-.87-.47-1.45v-10.74l14.43-1.65-.65,2.86-10.48,1.2v7.31l10.82-1.23v12.15c0,.6-.16,1.12-.46,1.57-.31.45-.69.7-1.14.75l-12.51,1.43v-2.78Z" style="fill: #00b7eb; stroke: #00b7eb; stroke-linecap: round; stroke-linejoin: round; stroke-width: 5.48px;"/>
  </g>
  <g style="filter: url(#drop-shadow-1);">
    <path d="M10.17,69.01l6.84-.78v-1.17l-5.93.68v-1.92l5.93-.68v-1.07l-6.44.73.88-3.11,2.26-.26-.32,1.13,3.63-.41v-1.03l2.33-.27v1.03l6.34-.72-.52,1.98-5.82.66v1.07l5.85-.67-.52,1.98-5.32.61v1.17l6.84-.78-.52,1.98-15.48,1.77v-1.92ZM11.44,53.33l13.54-1.54v6.24c0,.4-.11.76-.32,1.08-.21.32-.47.49-.77.53l-12.45,1.42v-7.72ZM22.73,54.98v-1.01l-9.03,1.03v1.01l9.03-1.03ZM22.73,57.84v-1.01l-9.03,1.03v1.01l9.03-1.03Z" style="fill: #fff;"/>
    <path d="M27.64,64.71l6.79-.77v-1.17l-5.64.64v-7.91l5.64-.64v-4.35l2.32-.26v1.28l6.93-.79-.52,1.97-6.4.73v1.17l5.74-.66v6.45c0,.4-.11.76-.32,1.07-.21.31-.47.48-.77.52l-4.65.53v1.17l6.93-.79-.52,1.99-6.4.73v2.31l-2.32.26v-2.31l-6.79.77v-1.92ZM40.19,57.19v-1.09l-9.1,1.04v1.09l9.1-1.04ZM40.19,60.18v-1.07l-9.1,1.04v1.07l9.1-1.04Z" style="fill: #fff;"/>
    <path d="M59,59.46v4.43c0,.4-.11.76-.32,1.08-.21.32-.47.49-.77.53l-10.66,1.21v-5.87l-1.88.68v-1.96l3.89-1.42-2.49-.34v-1.96l6.43.88,4.14-1.52v-.86l-10.77,1.23.39-2.03-1.49.17v-3.54l6.42-.73-.16-.97,2.62-.3.16.97,6.3-.72v3.33l-2.23.25v-1.4l-10.85,1.24v.64l1.69-.19-.2,1.05,10.4-1.19v4.18l-2.49.91,3.89.53v1.96l-2.01-.28ZM58.59,59.41l-5.39-.73-5.41,1.96,10.8-1.23ZM56.74,63.7v-2.16l-7.23.83v2.16l7.23-.83Z" style="fill: #fff;"/>
    <path d="M63.42,48.55l6.47-.74-.26-1.39,2.45-.28.28,1.39,6.06-.69v6.2c0,.4-.11.76-.32,1.08-.21.32-.48.49-.79.53l-11.64,1.33v5.33l-.87,3.41-2.26.26.88-3.41v-13.01ZM76.16,52.86v-3.83l-10.48,1.2v3.83l10.48-1.2Z" style="fill: #fff;"/>
  </g>
  <g style="filter: url(#drop-shadow-2);">
    <path d="M35.06,72.25l1.62,3.88-2.42.28-1.62-3.88,2.42-.28ZM35.06,77.17l1.62,3.88-2.42.28-1.62-3.88,2.42-.28ZM34.35,84.52v-2.25l2.33-.27v2.51l-1.62,5.3-2.42.28,1.71-5.56ZM37.15,72.77l2.2-.25v-.91l2.2-.25v.91l2.46-.28v-.91l2.2-.25v.91l2.45-.28-.5,1.98-1.95.22v1.03l-2.2.25v-1.03l-2.46.28v1.03l-2.2.25v-1.03l-2.2.25v-1.92ZM37.15,76.29l11.52-1.31-.5,1.98-2.8.32v1.15l2.89-.33v8.3l-.2,1.93-2.27.26.22-1.93v-6.24l-.82.09v1.65l-.25,1.23.85.45v2.43l-1.3-.67-.35,1.69-1.95.22.26-1.27-.79-.42-.36,1.79-1.72.2v1.48l-2.26.26v-10.21l2.89-.33v-1.15l-3.05.35v-1.92ZM40.38,82.71v-1.65l-.82.09v5.56l.82-4ZM42.89,84.05l.33-1.67v-1.65l-.89.1v1.65l-.23,1.15.79.42ZM43.3,78.66v-1.15l-1.03.12v1.15l1.03-.12Z" style="fill: #fff;"/>
    <path d="M50.2,74.01l3.81-.43-.39-.99-2.45.28v-1.85l5.66-.64-.15-.76,2.36-.27.15.76,5.89-.67-.5,1.9-1.92.22-.39,1.08,3.79-.43-.5,1.88-15.35,1.75v-1.83ZM51.19,85.93v-2.37l2.27-.26v2.37l-.45,2.09-2.27.26.45-2.09ZM51.8,76.21l12.66-1.44v5.05c0,.4-.11.76-.32,1.07-.21.31-.47.48-.77.52l-11.56,1.32v-6.51ZM62.14,77.49v-.62l-8.02.91v.62l8.02-.91ZM62.14,79.72v-.62l-8.02.91v.62l8.02-.91ZM54.73,82.98l2.32-.26v2.66l4.94-.56-.52,1.98-5.64.64c-.3.03-.56-.08-.77-.35-.21-.27-.32-.6-.32-1v-3.11ZM56.47,73.29l3.32-.38.39-1.08-4.11.47.39.99ZM58.35,82.74l2.26-.26v.89l.16.9-2.26.26-.16-.9v-.89ZM62.53,82.26l2.27-.26v2.31l.45,2.05-2.27.26-.45-2.05v-2.31Z" style="fill: #fff;"/>
    <path d="M74.07,75.56l-2.89.33-.99,3.73-2.26.26,1.01-3.77,2.17-.25,3.37-5.19-6.88.79v-1.92l7.03-.8-.29-1.13,2.41-.27.29,1.13,6.66-.76-.52,1.98-6.21.71-2.04,3.15.57-.06,1.11-1.64,2.48-.28-2.45,3.62,2.22-.25,1.09,3.59-8.52.97,2.65-3.92ZM67.59,81.92l6.9-.79v-1.26l2.27-.26v1.26l6.93-.79-.52,1.99-6.4.73v2.26l-2.27.26v-2.26l-6.9.79v-1.92ZM70.29,71.76l.9,3.18-2.26.26-.9-3.18,2.26-.26ZM76.95,76.92l-.48-1.54-1.17,1.73,1.65-.19ZM80.6,70.58l2.26-.26-.9,3.39-2.26.26.9-3.39ZM81.95,74.62l1.01,3.54-2.26.26-1.01-3.54,2.26-.26Z" style="fill: #fff;"/>
    <path d="M97.28,80.79l1.62-.18v-13.53l-6.61.75v9.43l-.42,6.08-2.27.26.07-1.08-2.99,1.41v-11.3l-1.62.18v-1.92l3.88-.44v10.4l.89-.41.2-2.92v-11.35l11.12-1.27v15.9c0,.41-.11.78-.32,1.09-.21.31-.48.48-.79.52l-2.25.26-.52-1.86ZM88.19,66.02l1.17,3.19-2.3.26-1.17-3.19,2.3-.26ZM92.7,72.41l1.76-.2v-1.13l-1.57.18v-1.92l1.57-.18v-.97l2.36-.27v.97l1.74-.2-.52,1.98-1.21.14v1.13l1.92-.22-.52,1.98-5.53.63v-1.92ZM93.12,75.08l5.02-.57v4.43c0,.4-.11.76-.32,1.08-.21.32-.48.49-.79.53l-3.91.45v-5.91ZM96.07,78.81v-2.24l-.87.1v2.24l.87-.1Z" style="fill: #fff;"/>
    <path d="M102.64,80.18l16.08-1.83-.52,1.98-15.56,1.77v-1.92ZM105.49,67.22l-2.51.29v-1.92l6.5-.74v-1.24l2.27-.26v1.24l6.63-.76-.52,1.98-2.11.24,2.81,3.76-1.72.2v6.07c0,.4-.11.76-.32,1.07-.21.31-.48.48-.79.52l-11.34,1.29v-7.52l-1.72.2,2.81-4.4ZM115.58,69.51l-2.38-3.17-1.44.16v2.82l-2.27.26v-2.82l-1.44.16-2.38,3.71,9.91-1.13ZM114.57,72.75v-1.21l-7.9.9v1.21l7.9-.9ZM114.57,75.88v-1.21l-7.9.9v1.2l7.9-.9Z" style="fill: #fff;"/>
  </g>
  <g style="filter: url(#drop-shadow-3);">
    <path d="M38.76,45.51c-.32-.38-.47-.86-.47-1.46v-12.15l11.01-1.26v-7.31l-11.09,1.27v-2.78l14.39-1.64v10.74c0,.58-.15,1.1-.46,1.56-.31.46-.69.71-1.14.76l-9.41,1.07v8.72l11.33-1.29-.65,2.86-12.36,1.41c-.44.05-.81-.11-1.13-.49Z" style="fill: #fff;"/>
    <path d="M55.43,19.82l15.02-1.71v22.27c0,.6-.15,1.12-.46,1.57-.31.45-.68.7-1.12.75l-13.44,1.53v-24.41ZM67.18,40.11v-18.84l-8.48.97v18.84l8.48-.97Z" style="fill: #fff;"/>
    <path d="M73.54,41.54c-.32-.38-.47-.86-.47-1.46v-12.15l11.01-1.26v-7.31l-11.09,1.26v-2.78l14.39-1.64v10.74c0,.58-.15,1.1-.46,1.56-.31.46-.69.71-1.14.76l-9.41,1.07v8.72l11.33-1.29-.65,2.86-12.36,1.41c-.44.05-.81-.12-1.13-.49Z" style="fill: #fff;"/>
    <path d="M90.21,37.48l10.82-1.23v-8.72l-9.22,1.05c-.44.05-.81-.12-1.13-.5-.32-.39-.47-.87-.47-1.45v-10.74l14.43-1.65-.65,2.86-10.48,1.2v7.31l10.82-1.23v12.15c0,.6-.16,1.12-.46,1.57-.31.45-.69.7-1.14.75l-12.51,1.43v-2.78Z" style="fill: #fff;"/>
  </g>
</svg>