<?xml version="1.0" encoding="UTF-8"?>
<svg id="_图层_1" data-name="图层_1" xmlns="http://www.w3.org/2000/svg" xmlns:xlink="http://www.w3.org/1999/xlink" version="1.1" viewBox="0 0 443.89 444.88">
  <!-- Generator: Adobe Illustrator 29.6.0, SVG Export Plug-In . SVG Version: 2.1.1 Build 207)  -->
  <defs>
    <style>
      .st0 {
        fill: url(#_未命名的渐变_7);
      }

      .st1 {
        filter: url(#drop-shadow-2);
      }

      .st2 {
        filter: url(#drop-shadow-4);
      }

      .st3 {
        filter: url(#drop-shadow-1);
      }

      .st3, .st4 {
        fill: #533278;
      }

      .st5 {
        fill: #8a6d4a;
        filter: url(#drop-shadow-3);
      }

      .st6 {
        fill: #fff;
      }

      .st7 {
        fill: #00b9ef;
      }

      .st8 {
        fill: url(#_未命名的渐变_24);
      }

      .st9 {
        fill: #fafbf3;
      }
    </style>
    <filter id="drop-shadow-1" x="19.07" y="177.97" width="418" height="259" filterUnits="userSpaceOnUse">
      <feOffset dx="3.09" dy="3.09"/>
      <feGaussianBlur result="blur" stdDeviation="2.21"/>
      <feFlood flood-color="#000" flood-opacity=".36"/>
      <feComposite in2="blur" operator="in"/>
      <feComposite in="SourceGraphic"/>
    </filter>
    <linearGradient id="_未命名的渐变_24" data-name="未命名的渐变 24" x1="-851.52" y1="90.21" x2="-851.52" y2="-94.92" gradientTransform="translate(927.99 -75.31) rotate(-12.51) scale(.95 .88)" gradientUnits="userSpaceOnUse">
      <stop offset=".82" stop-color="#1485c5"/>
      <stop offset=".89" stop-color="#3a9ed0"/>
      <stop offset="1" stop-color="#3b9fd2"/>
    </linearGradient>
    <linearGradient id="_未命名的渐变_7" data-name="未命名的渐变 7" x1="-851.52" y1="116.83" x2="-851.52" y2="-57.99" gradientTransform="translate(952.72 98.64) scale(.95 .88)" gradientUnits="userSpaceOnUse">
      <stop offset="0" stop-color="#5aa3c7"/>
      <stop offset=".2" stop-color="#74cffb"/>
      <stop offset="1" stop-color="#74cffb"/>
    </linearGradient>
    <filter id="drop-shadow-2" x="37.72" y="71.63" width="211" height="93" filterUnits="userSpaceOnUse">
      <feOffset dx=".88" dy=".88"/>
      <feGaussianBlur result="blur1" stdDeviation="1.33"/>
      <feFlood flood-color="#000" flood-opacity=".5"/>
      <feComposite in2="blur1" operator="in"/>
      <feComposite in="SourceGraphic"/>
    </filter>
    <filter id="drop-shadow-3" x="310.72" y="35.63" width="72" height="102" filterUnits="userSpaceOnUse">
      <feOffset dx=".88" dy=".88"/>
      <feGaussianBlur result="blur2" stdDeviation="1.33"/>
      <feFlood flood-color="#000" flood-opacity=".5"/>
      <feComposite in2="blur2" operator="in"/>
      <feComposite in="SourceGraphic"/>
    </filter>
    <filter id="drop-shadow-4" x="318.72" y="38.63" width="56" height="96" filterUnits="userSpaceOnUse">
      <feOffset dx=".88" dy=".88"/>
      <feGaussianBlur result="blur3" stdDeviation="1.33"/>
      <feFlood flood-color="#000" flood-opacity=".5"/>
      <feComposite in2="blur3" operator="in"/>
      <feComposite in="SourceGraphic"/>
    </filter>
  </defs>
  <path class="st3" d="M408.28,227.11l-341.53-45.4c-11.05-1.47-21.2,6.3-22.67,17.35l-21.16,159.2c-1.47,11.05,6.3,21.2,17.35,22.67l341.53,45.4c11.05,1.47,21.2-6.3,22.67-17.35l21.16-159.2c1.47-11.05-6.3-21.2-17.35-22.67ZM393.63,261.75c-4.77,0-8.65-3.87-8.65-8.65s3.87-8.65,8.65-8.65,8.65,3.87,8.65,8.65-3.87,8.65-8.65,8.65Z"/>
  <g>
    <path class="st6" d="M200.7,263.98c-.34.96-.59,1.66-.78,2.09-.25.62-.52,1.05-.82,1.28-.3.23-.63.33-1.01.28-.72-.1-1.31-.67-1.76-1.72-.22-.48-.38-1.04-.5-1.7-.99.61-2.16,1.16-3.52,1.66l-.37-1.1c1.43-.51,2.68-1.08,3.73-1.71-.13-1.26-.16-2.83-.07-4.71l-3.59-.48-.34,2.52,2.65-.27v.55s-.04.54-.04.54l-2.75.26-.43,3.2c-.09.64-.28,1.07-.58,1.29-.3.22-.8.28-1.49.19l-1.51-.2-.08-1.07,1.53.2c.29.04.51.04.66,0,.14-.04.25-.12.31-.24.06-.13.11-.33.15-.61l.35-2.65-2.87.29-.02-1.12c.24,0,1.25-.08,3.03-.25l.37-2.77-2.98-.4.14-1.04,2.98.4.31-2.36c-.52.02-1.37.01-2.55-.01l.06-1.01c2.24.07,4.19,0,5.84-.21l.04,1.02c-.52.07-1.29.13-2.31.18l-.34,2.52,3.51.47.1-1.43c.11-1.36.21-2.44.29-3.25l1.04.14c-.06.44-.14,1.38-.25,2.81l-.04.39-.1,1.48,4.73.63-.14,1.04-4.66-.62c-.08,1.53-.08,2.84,0,3.93,1.04-.75,2.04-1.68,2.98-2.79l.76.69c-1.13,1.3-2.33,2.4-3.61,3.3.12.69.3,1.32.54,1.87.15.31.29.54.45.69.15.15.32.23.5.25.17.02.33-.03.46-.17.13-.13.3-.45.5-.95.34-.99.55-1.62.62-1.9l.86.57ZM200.05,257.06c-.41-.6-1.1-1.56-2.07-2.88l.77-.62c.75.95,1.46,1.9,2.11,2.85l-.8.65Z"/>
    <path class="st6" d="M202.93,260.66c.62-.68,1.3-1.65,2.04-2.91.74-1.26,1.38-2.51,1.9-3.75l.91.4c-.41.99-.92,2.03-1.53,3.12l-1.47,11.09-1.02-.14,1.16-8.75c-.61.93-1.2,1.75-1.77,2.43l-.22-1.5ZM207.82,268.9l-1.08-.14,1.49-11.2,1.08.14-1.49,11.21ZM209.7,254.4c.22.32.48.75.78,1.27.3.53.55.98.75,1.37l-.81.63c-.22-.43-.47-.9-.75-1.4-.28-.5-.54-.95-.78-1.35l.81-.51ZM211.98,255.83l4.6.61-1.48,11.14c-.08.61-.2,1.06-.36,1.35-.16.29-.38.47-.68.55-.29.08-.71.08-1.25,0l-1.92-.26-.03-1.15,1.83.24c.35.05.61.05.78,0,.18-.04.31-.15.39-.32.08-.17.15-.45.21-.84l1.31-9.82-3.53-.47.14-1.04Z"/>
    <path class="st6" d="M217.9,265.63l3.14-2.12.98-7.38,1.01.13-1.93,14.5-1.01-.13.77-5.79-2.75,1.99-.21-1.21ZM219.9,262.54l-.9-4.57.89-.24c.28,1.23.6,2.74.95,4.54l-.94.27ZM231.54,265.68l-.13.98-1.71-.23-.43,3.23c-.07.51-.17.9-.32,1.15s-.36.42-.65.5c-.29.08-.69.08-1.21,0l-1.6-.21-.06-1.04,1.51.2c.35.05.61.05.79.02.18-.04.31-.12.4-.27.09-.14.15-.37.19-.68l.4-3.04-6.45-.86.13-.98,6.45.86.27-2.03.98.13-.27,2.03,1.71.23ZM223.51,260.98l-.45-.91c.86-.45,1.67-.98,2.43-1.59.76-.61,1.41-1.23,1.93-1.87l.9.58c-.37.42-.75.82-1.15,1.19l4.86.65-.14,1.06c-.99,1.1-2.15,1.96-3.48,2.59-1.34.62-3.05,1.09-5.14,1.39l-.33-1.03c1.87-.22,3.42-.58,4.63-1.08,1.21-.5,2.28-1.21,3.21-2.13l-4.57-.61-.55.42,1.6,1.64-.75.72-1.64-1.8c-.37.24-.82.51-1.35.8ZM224.2,265.98c.57.77,1.19,1.65,1.84,2.62l-.82.66c-.63-1.03-1.22-1.92-1.76-2.67l.73-.61Z"/>
    <path class="st6" d="M232.86,271.55c.89-.14,1.79-.34,2.71-.59.91-.25,1.71-.52,2.38-.81l.32.99c-.73.26-1.56.53-2.49.8-.93.27-1.83.49-2.69.66l-.22-1.04ZM245.36,262.67l-.97,7.33,2.11.28-.12.87-13.32-1.77.12-.87,2.12.28.97-7.33,4.03.54.16-1.19-5.82-.77.12-.9,5.82.77.18-1.38.99.13-.18,1.38,5.82.77-.12.9-5.82-.77-.16,1.19,4.06.54ZM243.51,268.81l-7.09-.94-.14,1.06,7.09.94.14-1.06ZM243.62,268.05l.14-1.03-7.09-.94-.14,1.03,7.09.94ZM236.77,265.29l7.09.94.13-1.01-7.09-.94-.13,1.01ZM244.1,264.43l.14-1.06-7.09-.94-.14,1.06,7.09.94ZM241.25,270.73c1.99,1.03,3.53,1.85,4.63,2.46l-.52.9c-.64-.39-1.41-.83-2.31-1.32-.9-.49-1.66-.88-2.28-1.19l.49-.85Z"/>
    <path class="st6" d="M255.89,271.01l-.15,1.16,5.85.78-.11.85-5.85-.78-.09.67c-.06.43-.15.75-.28.96-.13.21-.32.35-.58.41-.26.06-.63.06-1.12,0l-1.85-.25-.05-.92,1.77.24c.3.04.52.04.67,0,.15-.03.26-.11.33-.23.07-.12.12-.3.15-.54l.06-.48-6.35-.84.11-.85,6.35.84.15-1.16-5.16-.69.11-.82,5.16.69.15-1.12c-1.47-.12-3.19-.29-5.17-.52-.07,0-.19,0-.35-.03l.07-.86c4.7.55,8.42.89,11.16,1.03l-.03.83c-1.41-.08-2.97-.19-4.69-.35l-.15,1.16,4.66.62-.11.82-4.66-.62ZM249.36,263.92c.25.01,1.12,0,2.62-.04l.18-1.37-2.37-.31.11-.82,2.37.31.2-1.51.95.13-.2,1.51,1.92.26-.11.82-1.92-.26-.16,1.21c.77-.02,1.31-.04,1.62-.06l-.02.54v.34s-1.72.05-1.72.05l-.16,1.19c-.07.5-.22.84-.47,1.01-.25.17-.67.21-1.27.13l-1.11-.15-.07-.89,1.1.15c.35.05.57.03.68-.06.11-.08.18-.28.23-.59l.1-.77-2.54.09.04-.89ZM255.15,263.86l.69.39.84.47c.22-.42.37-.9.46-1.46l-1.79-.24.12-.87,1.8.24.22-1.56.89.12-.21,1.56,2.76.37-.22,1.64c-.12.89-.15,1.58-.1,2.06.01.51.13.79.36.82.11.02.2-.02.28-.09.07-.08.16-.24.25-.49.12-.29.27-.77.45-1.43l.69.42c-.07.25-.16.55-.27.88-.12.33-.23.61-.33.84-.12.3-.29.53-.5.68-.21.15-.45.21-.7.18-.27-.04-.51-.17-.7-.41-.19-.24-.32-.6-.38-1.09-.08-.59-.05-1.39.09-2.39l.11-.85-1.92-.26c-.13.71-.32,1.31-.58,1.79l1.77,1.05-.43.79c-.65-.41-1.26-.79-1.84-1.14-.28.32-.63.62-1.04.89-.41.27-.93.55-1.56.82l-.48-.85c.56-.23,1.02-.45,1.39-.67.37-.21.67-.44.91-.68l-1.4-.82.37-.7Z"/>
    <path class="st6" d="M268.36,262.46c-.47,1.17-.91,2.18-1.32,3.01l-1.47,11.06-.92-.12,1.14-8.58c-.53.91-1.05,1.73-1.57,2.44l-.27-1.28c.56-.75,1.18-1.8,1.86-3.15.69-1.34,1.23-2.59,1.63-3.75l.9.36ZM270.34,272.31v1.18s-2.76,1.84-2.76,1.84l-.44-.92c.17-.13.3-.26.39-.4.09-.13.15-.3.18-.51l1.44-10.84.93.12-.52,3.87,1.62.22-.14,1.04-1.62-.21-.77,5.77,1.68-1.17ZM275.92,277.94c-.63-.93-1.45-2.09-2.45-3.47-.33.57-.79,1.06-1.37,1.49-.58.43-1.36.86-2.32,1.29l-.48-.98c1.08-.42,1.9-.85,2.46-1.29.56-.44.95-.95,1.2-1.52.24-.57.43-1.34.55-2.29l.32-2.38.89.12-.34,2.57c-.11.81-.25,1.49-.44,2.02l2.76,3.75-.77.68ZM273.74,266.87c.17-.48.38-1.15.64-2.01l-2.75-.37.12-.92,6.52.87-.12.92-2.81-.37-.67,2,2.6.34-.96,7.22-.9-.12.84-6.3-3.7-.49-.84,6.29-.9-.12.96-7.2,1.97.26Z"/>
    <path class="st6" d="M284.76,266.06l-1.32,9.92-2.9-.39-.18,1.34-.96-.13,1.5-11.25,3.86.51ZM282.63,274.77l1.03-7.78-1.95-.26-1.03,7.78,1.96.26ZM293.04,271.41l-.15,1.11-2.25-.3-1.02,7.65-1.02-.14,1.02-7.65-2.83-.38c-.19,1.33-.4,2.41-.63,3.24-.24.83-.53,1.55-.89,2.17-.36.62-.85,1.29-1.47,2.03l-.76-.8c.65-.74,1.13-1.4,1.45-1.97.32-.57.58-1.24.77-2.01.2-.77.39-1.87.58-3.31l.63-4.74c1.11.04,2.23.03,3.36-.03,1.13-.06,2.14-.16,3.04-.32l.11,1.13c-.77.13-1.67.22-2.7.28-1.03.06-2,.08-2.92.05l-.42,3.17,6.09.81Z"/>
    <path class="st6" d="M293.83,279.27c.64-.94,1.3-2.12,1.96-3.55l.88.41c-.28.64-.6,1.29-.94,1.96-.35.67-.68,1.24-1,1.71l-.89-.53ZM299.51,266.6c-.43.8-.93,1.57-1.5,2.3l-.83,6.27-.96-.13.64-4.82c-.49.51-1.07,1.04-1.72,1.57l-.25-1.15c.76-.65,1.46-1.37,2.1-2.14.64-.78,1.16-1.55,1.57-2.33l.95.42ZM303.37,278.51l.09-.59.96.41-.33,1.64c-.12.59-.34.97-.65,1.14-.31.16-.79.21-1.43.12l-3.13-.42c-.62-.08-1.04-.27-1.25-.55-.21-.28-.27-.77-.18-1.46l.38-2.88.98.13-.34,2.59c-.06.43-.03.72.09.88.12.16.37.26.76.31l2.63.35c.44.06.74.04.92-.07.17-.1.29-.34.35-.71l.15-.9ZM301.6,271.7c-.36.56-.81,1.13-1.33,1.71-.52.57-1.03,1.07-1.52,1.48l-.7-.7c.46-.38.95-.84,1.45-1.39.5-.55.95-1.1,1.33-1.66l.76.56ZM298.84,270.34c.61-.53,1.17-1.13,1.68-1.8.51-.67.95-1.33,1.32-1.99l.93.37c-.19.36-.47.81-.83,1.36l6.51.86-.13.96-1.44,1.85-.87-.44,1.2-1.51-5.96-.79c-.57.7-1.14,1.32-1.71,1.85l-.7-.73ZM301.01,275.99c.21.31.45.69.73,1.14.28.45.49.82.65,1.12l-.84.56c-.19-.37-.63-1.14-1.31-2.29l.77-.54ZM303.82,274.4c-.07.56-.25.93-.53,1.12-.28.19-.72.25-1.34.17l-1.25-.17-.08-1.02,1.18.16c.39.05.65.02.8-.08.15-.11.25-.33.29-.67l.46-3.47.98.13-.51,3.84ZM305.62,276.69c.25.5.55,1.13.9,1.89.34.75.65,1.44.91,2.05l-.94.5c-.21-.53-.49-1.19-.83-1.98-.35-.79-.65-1.46-.9-2.02l.87-.44ZM305.9,271.9c.88,1.58,1.54,2.8,2,3.67l-.87.49c-.66-1.32-1.31-2.54-1.94-3.66l.81-.5Z"/>
    <path class="st6" d="M309.22,281.7c.89-.14,1.79-.34,2.7-.59.91-.25,1.71-.52,2.38-.81l.32.99c-.73.26-1.56.53-2.49.8-.93.27-1.83.49-2.69.66l-.22-1.04ZM321.72,272.82l-.97,7.33,2.11.28-.12.87-13.32-1.77.12-.87,2.12.28.97-7.33,4.03.54.16-1.19-5.82-.77.12-.9,5.82.77.18-1.38.99.13-.18,1.38,5.82.77-.12.9-5.82-.77-.16,1.19,4.06.54ZM319.88,278.96l-7.09-.94-.14,1.06,7.09.94.14-1.06ZM319.98,278.2l.14-1.03-7.09-.94-.14,1.03,7.09.94ZM313.13,275.44l7.09.94.13-1.01-7.09-.94-.13,1.01ZM320.46,274.58l.14-1.06-7.09-.94-.14,1.06,7.09.94ZM317.62,280.88c1.99,1.03,3.53,1.85,4.63,2.46l-.52.9c-.64-.39-1.41-.83-2.31-1.32-.9-.49-1.66-.89-2.28-1.19l.49-.85Z"/>
    <path class="st6" d="M338.14,281.96l-5.31-.71c-.16.29-.29.49-.39.62l1.48.95c1.56,1.03,2.78,1.8,3.64,2.33l-.64.96-1.04-.71c-.31-.22-.94-.65-1.89-1.3-.95-.65-1.69-1.15-2.23-1.49-.66.57-1.52,1.01-2.61,1.32-1.08.31-2.49.55-4.23.7l-.23-1.11c2.02-.15,3.56-.4,4.63-.77,1.07-.37,1.87-.92,2.39-1.65l-6.8-.9.14-1.03,7.18.95c.23-.55.43-1.37.61-2.47l.48-3.01,1.04.14c-.06.47-.19,1.25-.37,2.34l-.12.82c-.16.94-.35,1.71-.57,2.33l5.01.67-.14,1.03ZM337.56,274.32l-10.06-1.34-.28,2.11-1.08-.14.42-3.13,5.91.79-.44-1.83,1.16-.04.49,2.03,5.1.68-.42,3.17-1.07-.14.28-2.14ZM327.49,276.07c.34.27.72.57,1.16.89.87.67,1.56,1.22,2.07,1.63l-.6.8c-.76-.66-1.82-1.5-3.16-2.51l.54-.81ZM331.49,277.21c-.49-.45-1.47-1.26-2.94-2.44l.54-.81c1.18.92,2.17,1.71,2.96,2.37l-.57.87Z"/>
    <path class="st6" d="M345.47,272.46c-.21.6-.51,1.4-.92,2.4l2.44.33-1.46,10.96-4.19-.56-.15,1.09-.98-.13,1.6-12.06,1.6.21c.3-.65.64-1.51,1-2.58l1.04.34ZM342,280.67l-.51,3.81,3.19.42.51-3.81-3.19-.42ZM342.15,279.56l3.19.42.51-3.83-3.19-.42-.51,3.83ZM353.98,276.16c-.18,1.11-.44,2.71-.79,4.8-.35,2.09-.61,3.71-.81,4.85-.09.51-.22.9-.4,1.17-.18.27-.43.45-.76.53-.33.08-.77.09-1.31.01l-1.91-.25-.05-1.15,1.8.24c.41.05.72.06.94,0,.22-.05.39-.16.5-.35.12-.19.21-.48.27-.87.03-.16.15-.88.36-2.15.21-1.28.39-2.37.54-3.27.23-1.47.37-2.34.42-2.61l-3.7-.49c-.45.8-.94,1.55-1.48,2.24l-.82-.76c.59-.71,1.16-1.56,1.71-2.55.55-1,.98-1.94,1.31-2.82l.97.39c-.31.81-.69,1.63-1.12,2.47l4.31.57ZM349.54,283.08c-.25-.53-.55-1.14-.89-1.82-.34-.68-.64-1.25-.91-1.72l.85-.56c.78,1.37,1.42,2.56,1.92,3.58l-.97.52Z"/>
    <path class="st6" d="M357.53,280.77l10.2,1.36-.54,4.07-9.24-1.23c-.16.76-.42,1.44-.78,2.04-.35.6-.87,1.21-1.56,1.85l-.73-.85c.53-.47.94-.92,1.24-1.35.29-.42.52-.88.67-1.36.15-.48.28-1.09.37-1.82l.36-2.72ZM369.82,277.27l-.13.95-6.05-.8-.23,1.74,4.95.66-.12.92-10.92-1.45.12-.92,4.93.66.23-1.74-6.08-.81.13-.95,6.08.81.22-1.69,1.04.14-.22,1.69,6.05.8ZM361.99,282.31l-3.57-.47-.28,2.07-.02.13,3.57.47.29-2.2ZM362.7,284.65l3.59.48.29-2.2-3.59-.48-.29,2.2Z"/>
    <path class="st6" d="M384.76,282.76l-.13,1-13.38-1.78.13-1,3.86.51c-.19-1.25-.32-2.09-.41-2.53l-2.43-.32.13-.96,5.71.76c-.12-.38-.29-.91-.52-1.59l1.16-.11.56,1.86,5.05.67-.13.96-2.28-.3c-.21.45-.58,1.23-1.12,2.32l3.77.5ZM372.95,291.02l-1.05-.14.96-7.19,9.79,1.3-.96,7.19-1.07-.14.12-.87-7.67-1.02-.12.87ZM373.42,287.5l-.23,1.7,7.67,1.02.23-1.7-7.67-1.02ZM381.21,287.58l.23-1.75-7.67-1.02-.23,1.75,7.67,1.02ZM375.93,279.11l.41,2.52,3.53.47c.18-.31.37-.7.58-1.14.21-.45.38-.84.51-1.18l-5.02-.67Z"/>
    <path class="st6" d="M183.52,290.37c.47-.3.98-.68,1.51-1.15.53-.47.98-.92,1.35-1.35l.68.74c-.39.43-.86.89-1.42,1.38-.56.49-1.08.91-1.56,1.25l-.57-.88ZM190.18,287.1l1.21.16-.12.92-7.24-.96.12-.92,1.34.18.92-6.94-1.02-.14.12-.92,1.02.14.22-1.69.92.12-.22,1.69,2.86.38.22-1.69.92.12-.22,1.69,1.07.14-.12.92-1.07-.14-.92,6.94ZM189.49,285.29l-2.86-.38-.22,1.69,2.86.38.22-1.69ZM189.83,282.71l-2.86-.38-.22,1.66,2.86.38.22-1.66ZM189.96,281.77l.23-1.74-2.86-.38-.23,1.74,2.86.38ZM188.76,288.18c.32.4.63.81.94,1.24l.63.84-.74.64-.53-.72c-.48-.66-.83-1.12-1.04-1.38l.73-.61ZM193.31,278.68l4.66.62-1.53,11.51c-.06.46-.16.81-.3,1.05-.14.24-.34.39-.61.47-.26.07-.62.08-1.08.02l-1.19-.16-.06-1.06,1.19.16c.43.06.72.03.87-.08.15-.11.26-.36.31-.76l.35-2.64-2.93-.39c-.22,1.09-.5,1.97-.85,2.65-.35.68-.89,1.42-1.63,2.22l-.82-.76c.69-.69,1.21-1.32,1.54-1.89.33-.57.59-1.24.77-2.02.18-.78.38-1.95.59-3.53l.72-5.42ZM196.05,286.78l.37-2.81-2.86-.38-.15,1.11c-.06.45-.15,1.02-.26,1.7l2.89.38ZM196.56,282.99l.36-2.73-2.86-.38-.36,2.73,2.86.38Z"/>
    <path class="st6" d="M204.3,283.53c-.56.81-1.1,1.52-1.62,2.12l-1.06,7.96-.98-.13.87-6.53c-.61.65-1.2,1.19-1.77,1.61l-.28-1.2c.63-.46,1.32-1.11,2.06-1.93.74-.83,1.42-1.67,2.03-2.53l.74.62ZM204.94,279.88c-.51.6-1.2,1.27-2.04,2.03s-1.64,1.39-2.38,1.9l-.32-1.12c.64-.43,1.36-1,2.16-1.71.8-.71,1.43-1.34,1.88-1.89l.7.8ZM213.26,286.78l-2.21-.29-.24,1.83,2,.27-.14,1.03-2-.27-.45,3.36c-.06.48-.17.84-.33,1.08-.16.24-.39.4-.69.46-.3.07-.73.07-1.28,0l-1.59-.21-.06-1.07,1.56.21c.37.05.64.05.82.01.18-.04.32-.13.4-.28.09-.15.15-.38.19-.7l.4-2.99-5.73-.76.14-1.03,5.73.76.24-1.83-6.03-.8.14-1.03,3.97.53.28-2.14-3.15-.42.14-1.03,3.15.42.28-2.11,1.04.14-.28,2.11,3.56.47-.14,1.03-3.56-.47-.28,2.14,4.26.57-.14,1.03ZM205.17,289.02c.38.5.96,1.34,1.73,2.54l-.86.7c-.5-.8-1.07-1.66-1.72-2.6l.85-.64Z"/>
    <path class="st6" d="M214.67,290.09l9.84,1.31-.15,1.11-9.84-1.31.15-1.11ZM228.42,285.8l-9.22-1.23-.54,2.63,8.74,1.16-1.09,5.63c-.14.69-.33,1.2-.57,1.54-.24.33-.55.55-.94.64-.39.1-.92.1-1.59,0l-2.7-.36-.05-1.14,2.61.35c.51.07.89.08,1.15.03.26-.05.46-.19.62-.42.15-.23.27-.6.37-1.11l.54-2.64.32-1.58-8.77-1.17,1.4-6.91,1.15.15-.42,2.12,9.15,1.22-.14,1.08Z"/>
    <path class="st6" d="M229.42,296.16c.64-.94,1.3-2.12,1.96-3.55l.88.41c-.28.64-.6,1.29-.94,1.96-.35.67-.68,1.24-1,1.71l-.89-.53ZM235.1,283.48c-.43.8-.93,1.57-1.5,2.3l-.83,6.27-.96-.13.64-4.82c-.49.51-1.06,1.04-1.72,1.57l-.25-1.15c.76-.65,1.46-1.37,2.1-2.14.64-.78,1.16-1.55,1.57-2.33l.95.42ZM238.95,295.4l.09-.59.96.41-.33,1.64c-.12.59-.34.97-.65,1.14-.31.17-.79.21-1.43.12l-3.13-.42c-.62-.08-1.04-.27-1.25-.55-.21-.28-.27-.77-.18-1.46l.38-2.88.98.13-.34,2.59c-.06.43-.03.72.09.88.12.16.37.26.76.31l2.63.35c.44.06.74.04.92-.07.17-.1.29-.34.35-.71l.15-.9ZM237.19,288.58c-.36.56-.81,1.13-1.33,1.7-.52.57-1.03,1.07-1.52,1.48l-.7-.7c.46-.38.95-.84,1.45-1.39.5-.55.95-1.1,1.33-1.66l.76.56ZM234.43,287.22c.61-.53,1.17-1.13,1.68-1.8.51-.67.95-1.33,1.32-1.99l.93.37c-.19.36-.47.81-.83,1.36l6.51.87-.13.96-1.44,1.85-.87-.44,1.2-1.51-5.96-.79c-.57.7-1.14,1.32-1.71,1.85l-.7-.73ZM236.6,292.87c.21.31.45.69.73,1.14.28.45.49.82.65,1.12l-.84.56c-.19-.37-.63-1.14-1.31-2.29l.77-.54ZM239.41,291.28c-.07.56-.25.93-.53,1.12-.28.19-.72.25-1.34.16l-1.25-.17-.08-1.03,1.18.16c.39.05.65.02.8-.08.15-.11.25-.33.29-.67l.46-3.47.98.13-.51,3.84ZM241.2,293.57c.25.5.55,1.13.9,1.89.34.75.65,1.44.91,2.05l-.94.5c-.21-.53-.49-1.19-.83-1.98-.35-.79-.65-1.46-.91-2.02l.87-.44ZM241.48,288.78c.88,1.58,1.54,2.8,2,3.67l-.87.49c-.66-1.32-1.31-2.54-1.94-3.66l.81-.5Z"/>
    <path class="st6" d="M244.85,298.37c.71-.29,1.54-.7,2.47-1.25.94-.55,1.78-1.09,2.52-1.62l.58.98c-.67.47-1.5.98-2.48,1.54-.98.56-1.86,1.02-2.63,1.4l-.47-1.04ZM255.88,290.15l-.55,4.16,3.44.46-.15,1.12-13.33-1.77.15-1.13,3.31.44.55-4.16-2.89-.38.15-1.09,2.89.38.41-3.09,1.1.15-.41,3.09,4.41.59.41-3.09,1.07.14-.41,3.09,2.99.4-.15,1.09-2.99-.4ZM254.81,290.01l-4.41-.59-.55,4.16,4.41.59.55-4.16ZM253.76,296.02c.53.48,1.21,1.14,2.05,1.97.84.83,1.52,1.52,2.02,2.07l-.81.82c-.52-.58-1.19-1.28-2.01-2.1-.81-.82-1.49-1.46-2.03-1.94l.76-.83Z"/>
    <path class="st6" d="M272.62,300.89c-.07.5-.18.88-.33,1.13-.15.25-.37.41-.66.48-.29.07-.69.07-1.2,0l-1.73-.23-.06-1.05,1.6.21c.34.04.59.05.77.01.18-.04.31-.13.4-.28.09-.15.15-.39.2-.71l1.36-10.24-9.59-1.27-1.67,12.54-1.04-.14,1.8-13.57,11.68,1.55-1.54,11.56ZM264.14,291.05l7.59,1.01-.13.98-7.59-1.01.13-.98ZM264.69,293.98l5.68.75-.66,5-5.68-.75.66-5ZM265.53,295.07l-.41,3.09,3.76.5.41-3.09-3.76-.5Z"/>
    <path class="st6" d="M276.27,293.88c.85-.53,1.67-1.19,2.46-1.97.79-.78,1.47-1.57,2.05-2.35l.89.12c.04.06.1.14.16.22.06.09.13.2.2.33.96,1.43,1.75,2.65,2.37,3.69l-.68.88c-.45-.83-1.21-2.07-2.27-3.7-.08-.11-.17-.25-.27-.41-1.24,1.61-2.75,3.03-4.53,4.26l-.37-1.05ZM283.03,294.96c-.05.34-.12.88-.24,1.61-.11.73-.2,1.3-.27,1.71-.09.47-.21.82-.34,1.06-.14.24-.34.4-.6.48-.26.08-.63.09-1.1.03l-1.34-.18-.06-.97,1.27.17c.33.04.57.05.73.02.16-.03.28-.12.35-.26.08-.14.14-.37.21-.68.04-.26.1-.59.17-1.02.07-.42.13-.78.17-1.08l-3.42-.46-.73,5.46c-.05.41-.07.71-.04.91.03.2.12.35.28.45.16.1.41.17.77.22l1.92.26c.37.05.64.05.82,0,.18-.05.32-.15.41-.31.09-.16.16-.41.23-.75.13-.64.21-1.14.26-1.5l.93.34c-.03.26-.08.56-.15.9-.07.35-.13.65-.18.9-.1.44-.23.78-.38,1-.15.23-.38.37-.68.43-.3.06-.72.06-1.26-.01l-2.34-.31c-.49-.07-.86-.18-1.12-.35-.26-.16-.43-.41-.5-.72-.08-.32-.08-.75,0-1.29l.9-6.77,5.31.71ZM285.75,303.37c.34.04.59.05.76.01.17-.04.3-.13.39-.28s.15-.37.19-.67l1.59-11.95.99.13-1.65,12.38c-.06.47-.17.83-.31,1.07-.15.24-.36.4-.65.48-.29.08-.69.08-1.18.01l-1.73-.23-.06-1.19,1.66.22ZM284.42,300.62l1.23-9.24.98.13-1.23,9.24-.98-.13Z"/>
    <path class="st6" d="M303.99,305.74l-.36,1.06-6.69-.89c-.71-.09-1.3-.23-1.76-.41-.46-.18-.86-.43-1.21-.78-.35-.34-.69-.81-1.02-1.41l-2.09,2.04-.4-1.23,2.1-1.91.62-4.65-1.68-.22.14-1.04,2.64.35-.75,5.66c.28.59.59,1.06.91,1.39.32.33.7.58,1.13.75s.98.29,1.67.38l6.75.9ZM294.34,295.36c-.15-.36-.4-.87-.76-1.53-.36-.66-.68-1.24-.97-1.72l.86-.61c.24.38.55.91.92,1.57.37.67.66,1.21.88,1.65l-.93.65ZM304.97,297.69l-.13.95-9.47-1.26.13-.95,4.46.59.26-1.99-2.63-.35c-.33.53-.68,1.04-1.06,1.53l-.76-.62c.42-.51.82-1.1,1.21-1.76.39-.66.71-1.3.95-1.91l.84.44c-.22.54-.44,1.02-.67,1.43l2.23.3.29-2.15.99.13-.29,2.15,3.53.47-.13.95-3.53-.47-.27,1.99,4.02.53ZM303.4,299.92l-.54,4.1-7.07-.94.54-4.1,7.07.94ZM302.28,300.71l-5.09-.68-.3,2.23,5.09.68.3-2.23Z"/>
    <path class="st6" d="M308.55,303.22c-.72,1.33-1.42,2.4-2.12,3.19l-.68-.6c.36-.39.7-.83,1.01-1.31.31-.49.65-1.07,1.02-1.74l.76.46ZM313.22,302.88l-2.73-.36-.5,3.78c-.05.4-.14.69-.25.88-.11.19-.29.32-.52.37-.24.06-.57.05-1.01,0l-.92-.12-.05-1.05.84.11c.3.04.51.04.64.02.13-.03.22-.09.27-.2.05-.11.09-.3.13-.58l.44-3.33-2.89-.38.13-.98,2.89.38.25-1.86-3.18-.42.13-.95,1.94.26c-.03-.66-.07-1.58-.15-2.77l-.96-.13.13-.95,2.75.37-.27-1.69,1-.05c.06.26.16.88.29,1.87l2.49.33-.13.95-.87-.12c-.32.92-.65,1.79-1,2.62l1.88.25-.13.95-2.99-.4-.25,1.86,2.73.36-.13.98ZM309.54,295.78c0,.19.02.48.05.88.06,1.1.1,1.73.11,1.9l1.5.2c.3-.69.63-1.56,1-2.62l-2.66-.35ZM311.6,303.32c.17.33.5,1,.98,2.01l.22.44-.78.49c-.41-.9-.8-1.74-1.18-2.5l.76-.44ZM320.29,300.28l-.14,1.03-1.68-.22-1.05,7.91-.95-.13,1.05-7.91-2.06-.27v.03c-.19,1.39-.39,2.53-.6,3.4-.21.87-.47,1.64-.79,2.3-.32.66-.76,1.34-1.32,2.03l-.91-.64c.54-.63.97-1.25,1.28-1.87.32-.62.57-1.36.77-2.2s.39-1.95.58-3.33l.65-4.85c.91.02,1.83-.01,2.77-.1.94-.09,1.74-.22,2.41-.39l.17,1.05c-.58.17-1.28.31-2.08.4-.81.09-1.6.14-2.39.13l-.4,3.02,4.69.62Z"/>
    <path class="st6" d="M322.06,301.13l13.36,1.78-.17,1.25-13.36-1.78.17-1.25Z"/>
    <path class="st6" d="M350.18,308.55l-.14,1.08-5.38-.71-.49,3.7-1.07-.14.49-3.7-6.78-.9.14-1.08,2.14.29.58-4.34,4.64.62.38-2.88-3.6-.48c-.82,1.05-1.82,2.08-2.99,3.1l-.51-1.05c.84-.67,1.61-1.44,2.33-2.29.72-.85,1.33-1.74,1.84-2.67l1,.46c-.24.43-.55.91-.93,1.46l9.04,1.2-.14,1.06-4.96-.66-.38,2.88,4.57.61-.14,1.05-4.57-.61-.44,3.29,5.38.71ZM340.54,303.91l-.44,3.29,3.64.48.44-3.29-3.63-.48Z"/>
    <path class="st6" d="M355.6,305.94l-.17,1.27c.67.85,1.27,1.64,1.8,2.37l-.7.68-1.27-1.79-.73,5.51-.92-.12.77-5.82c-.62,1.16-1.38,2.22-2.29,3.16l-.28-1.13c1.11-1.13,2.03-2.55,2.74-4.27l-1.86-.25.13-1,1.99.26.73-5.47.92.12-.73,5.47,1.77.24-.13,1-1.77-.24ZM353.75,303.85c-.14-1.02-.34-2.13-.58-3.32l.83-.17.07.39c.25,1.32.42,2.29.51,2.91l-.83.18ZM358.38,301.18c-.74,1.52-1.26,2.54-1.54,3.08l-.69-.44c.61-1.16,1.11-2.16,1.49-2.99l.75.34ZM357.3,314.19l.95-7.17,6.58.88-.74,5.59c-.08.57-.24.94-.48,1.12-.25.18-.67.23-1.26.15l-1.4-.19-.05-.89,1.25.17c.39.05.65.03.79-.07.14-.1.24-.31.28-.64l.08-.63-4.77-.63-.32,2.43-.92-.12ZM362.46,304.5l-.15,1.14,3.82.51-.11.8-8.31-1.1.11-.8,3.54.47.15-1.14-2.93-.39.1-.79,2.93.39.15-1.11-3.16-.42.11-.82,3.16.42.2-1.51.95.13-.2,1.51,3.41.45-.11.82-3.41-.45-.15,1.11,3.04.4-.1.79-3.04-.4ZM358.8,309.92l-.15,1.12,4.77.63.15-1.12-4.77-.63ZM363.67,309.73l.15-1.11-4.77-.63-.15,1.11,4.77.63Z"/>
    <path class="st6" d="M374.01,314.3l-.77-.89c-.6-.7-1.07-1.24-1.4-1.61l-.59,4.45-.96-.13.66-4.95c-.95,1.28-2.13,2.38-3.55,3.31l-.4-.99c1.66-1.05,2.97-2.34,3.92-3.85l-3.01-.4.13-.98,3.24.43.19-1.45.96.13-.19,1.45,2.96.39-.13.98-2.96-.39-.12.87c.95.92,1.85,1.85,2.69,2.78l-.67.84ZM369.65,307.12c-.19-.7-.51-1.69-.96-2.96l.87-.36c.29.81.6,1.8.96,2.97l-.87.34ZM376.06,303.54c-1.02.05-2.24.07-3.64.05-1.41-.01-2.63-.06-3.66-.14l.03-1.06c1.06.1,2.29.16,3.67.18,1.38.02,2.57,0,3.58-.06l.03,1.04ZM372.06,306.81c-.08-.37-.29-1.14-.62-2.31l-.08-.31.87-.26.71,2.58-.88.29ZM373.29,307.33c.31-.43.63-.92.98-1.49s.64-1.08.89-1.55l.81.48c-.61,1.04-1.25,2.06-1.91,3.05l-.76-.49ZM381,312.1c-.91.94-2,1.8-3.26,2.59-1.26.79-2.54,1.44-3.84,1.93l-.36-1.01c1.26-.44,2.47-1.02,3.64-1.73s2.22-1.53,3.15-2.45l.67.68ZM375.35,310.6c.88-.41,1.76-.92,2.65-1.55.88-.62,1.7-1.32,2.45-2.08l.65.71c-.73.78-1.56,1.51-2.5,2.2-.94.69-1.88,1.27-2.83,1.73l-.42-1.02ZM381.22,303.56c-1.51,1.51-3.15,2.72-4.94,3.61l-.41-.97c1.67-.8,3.23-1.92,4.69-3.35l.67.71Z"/>
  </g>
  <g>
    <path class="st6" d="M183.8,313.26l.23.6-1.02.38.88.64-.37.52-.82-.73-.09,1.12-.61-.08.2-1.11-.97.49-.24-.6,1.03-.39-.89-.63.38-.52.81.73.1-1.12.61.08-.21,1.11.98-.49Z"/>
    <path class="st6" d="M190.56,315.28c.26,1.03.63,1.98,1.12,2.85.49.87,1.11,1.72,1.86,2.56l-.57.62c-.71-.84-1.32-1.75-1.82-2.74-.51-.98-.88-2-1.12-3.06l-.56,4.23,2.07.28-.1.71-2.07-.27-.25,1.87-.7-.09.25-1.87-2.05-.27.1-.72,2.05.27.57-4.3c-.51.96-1.11,1.83-1.8,2.61-.69.78-1.56,1.57-2.59,2.37l-.37-.71c.99-.72,1.82-1.43,2.5-2.15.67-.71,1.27-1.52,1.79-2.42l-3.24-.43.1-.73,3.75.5.23-1.77.7.09-.23,1.77,3.76.5-.1.73-3.26-.43Z"/>
    <path class="st6" d="M197.05,320.15l.08.72-1.55,1.39-.36-.53c.09-.09.17-.18.21-.27.05-.09.08-.19.1-.31l.49-3.68-.91-.12.09-.69,1.54.2-.54,4.08.85-.79ZM196.99,316.05c-.11-.26-.27-.6-.47-1.03-.21-.43-.38-.77-.52-1.03l.59-.33c.19.34.53,1.01,1.02,2.02l-.62.37ZM198.46,314.34l5.43.72-1.02,7.69c-.06.43-.19.71-.4.86-.21.14-.54.18-1,.12l-.89-.12-.03-.66.9.12c.28.04.48.02.59-.05.11-.07.19-.24.22-.49l.92-6.91-4.18-.55-.43,3.24c-.13.95-.25,1.72-.37,2.29-.12.57-.27,1.07-.44,1.49-.17.42-.41.86-.71,1.3l-.57-.43c.31-.46.55-.89.72-1.28.17-.39.31-.86.42-1.4.11-.54.23-1.3.37-2.29l.48-3.65ZM198.82,318.58l.08-.61,1.46.19.14-1.02-1.25-.17.07-.56,1.25.17.13-.96.6.08-.13.96,1.28.17-.07.56-1.28-.17-.14,1.02,1.53.2-.08.61-3.59-.48ZM199.2,319.47l2.56.34-.34,2.54-2.56-.34.34-2.55ZM199.52,321.51l1.41.19.19-1.4-1.41-.19-.19,1.4Z"/>
    <path class="st6" d="M212.95,325.03l-8.36-1.11.08-.63,8.36,1.11-.08.63ZM205.1,318.39c1.46-.26,2.76-.75,3.92-1.47l-3.38-.45.09-.64,3.79.5.15-1.1.68.09-.15,1.1,3.81.51-.09.64-3.41-.45c.86.94,1.99,1.74,3.41,2.38l-.33.64c-.81-.44-1.5-.86-2.07-1.28-.57-.42-1.06-.88-1.46-1.37l-.2,1.54-.68-.09.21-1.55c-.55.37-1.16.7-1.83.98-.67.28-1.43.53-2.27.76l-.17-.73ZM211.91,323.27l-5.9-.78.47-3.52,5.9.78-.47,3.52ZM206.87,321.1l-.12.87,4.57.61.12-.87-4.57-.61ZM211.51,321.14l.12-.91-4.57-.61-.12.9,4.57.61Z"/>
    <path class="st6" d="M218.02,322.76l-.5-.26.56-1.6-1.01-.13-.52,3.91c-.05.39-.16.65-.33.78-.17.13-.45.17-.83.11l-.76-.1-.02-.73.73.1c.23.03.38.01.46-.06.08-.07.14-.21.17-.44l.49-3.66-1.41-.19.09-.66,1.71.23c-.39-.78-.71-1.39-.97-1.82l.46-.3.65,1.16c.56-.62.97-1.1,1.25-1.46l-2.65-.35.09-.65,3.36.45-.1.72c-.66.77-1.21,1.4-1.64,1.88l.25.48,1.19.16-.08.64-.61,1.8ZM222.77,326.78c-.21-.29-.52-.67-.91-1.16-.4-.49-.75-.91-1.06-1.27-.26.4-.62.74-1.08,1.03-.46.29-1.04.54-1.76.76l-.32-.67c.77-.21,1.36-.45,1.79-.72.43-.27.74-.58.94-.93.2-.36.33-.81.4-1.35l.25-1.86.64.09-.26,1.92c-.06.43-.15.81-.28,1.14.58.65,1.29,1.48,2.12,2.49l-.47.56ZM220.86,319.37c.18-.51.33-.94.45-1.3l-1.98-.26.09-.65,4.89.65-.09.65-2.25-.3-.45,1.3,2.01.27-.62,4.7-.61-.08.54-4.07-2.86-.38-.54,4.07-.61-.08.62-4.7,1.41.19Z"/>
    <path class="st6" d="M226.53,325.53l1.76-1.08.14.75-2.71,1.62-.29-.59c.14-.1.22-.18.27-.25.04-.07.07-.17.09-.29l.54-4.04-1.25-.17.1-.74,1.95.26-.6,4.53ZM227.49,320.24c-.51-.95-.94-1.7-1.28-2.26l.59-.38c.36.58.79,1.32,1.31,2.24l-.62.4ZM231.38,321.76l2.54.34-.1.73-2.54-.34-.7,5.3-.68-.09.7-5.3-2.61-.35.1-.72,2.61.35.47-3.55.68.09-.47,3.56Z"/>
    <path class="st6" d="M237.11,324.3l-.07.52c.11.12.39.42.82.91l.52.58-.42.56c-.28-.36-.62-.77-1.03-1.25l-.39,2.93-.64-.09.4-3.02c-.48.77-.99,1.4-1.54,1.89l-.27-.65c.35-.32.69-.7,1.04-1.15.34-.45.64-.9.88-1.35l-1.48-.2.09-.65,1.54.21.14-1.05-1.3-.17.08-.61,1.3.17.14-1.06-1.44-.19.09-.64,1.44.19.16-1.22.64.08-.16,1.22,1.36.18-.09.64-1.36-.18-.14,1.06,1.22.16-.08.61-1.22-.16-.14,1.05,1.48.2-.09.65-1.48-.2ZM242.68,326.56l.61.26-.21,1.18c-.05.3-.13.53-.23.68-.1.15-.24.25-.42.29-.18.04-.43.04-.75,0l-.85-.11c-.39-.05-.67-.18-.82-.39-.16-.21-.2-.55-.14-1.03l.22-1.63-1.83-.05.07-.69,1.85.05.22-1.68-1.5-.05.05-.68,1.54.05.23-1.69c-.57.02-1.05.03-1.43.02l.03-.68c.64.01,1.39,0,2.23-.06.85-.05,1.56-.11,2.14-.18l.04.68c-.46.07-1.24.13-2.34.18l-.23,1.74,2.28.08-.04.68-2.33-.07-.22,1.67,2.82.09-.05.69-2.86-.08-.21,1.58c-.04.27-.02.46.06.57.08.11.23.18.46.22l.63.08c.2.03.35.04.45.02.1-.02.17-.08.22-.16.05-.09.09-.23.12-.43l.19-1.14Z"/>
    <path class="st6" d="M245.48,329.32l-.65-.09,1.1-8.26,2.98.4-.99,7.48-2.33-.31-.1.78ZM246.04,325.14l-.35,2.66,1.69.22.35-2.66-1.69-.22ZM247.82,324.67l.35-2.64-1.69-.22-.35,2.64,1.69.22ZM254.1,323.36l-.1.73-1.13-.15-.69,5.2c-.05.36-.12.62-.23.8-.1.17-.26.29-.48.34-.21.05-.52.05-.91,0l-1.22-.16-.04-.77,1.17.16c.28.04.49.04.62.02.14-.03.23-.09.29-.19.06-.1.1-.27.13-.5l.66-4.99-3.14-.42.1-.73,3.14.42.29-2.15.69.09-.29,2.15,1.13.15ZM250.25,327.27c-.22-.64-.55-1.51-.98-2.62l.58-.25c.15.37.33.82.54,1.35.21.53.37.95.48,1.27l-.62.26Z"/>
    <path class="st6" d="M256.56,330.53l-.78-.1.93-7.02-1.6.63.11-.86,1.81-.7.58.08-1.06,7.97Z"/>
    <path class="st6" d="M259.13,329.93c-.34-.77-.42-1.82-.25-3.15.18-1.33.53-2.32,1.06-2.97.53-.66,1.2-.93,2-.83.8.11,1.37.55,1.72,1.32.34.77.43,1.82.25,3.15-.18,1.33-.53,2.32-1.07,2.97-.53.66-1.2.93-2,.83-.8-.11-1.37-.55-1.71-1.32ZM262.33,329.78c.38-.54.64-1.36.78-2.44.14-1.08.1-1.93-.12-2.56-.23-.63-.61-.98-1.15-1.05-.54-.07-1,.17-1.38.71-.38.55-.64,1.36-.78,2.45-.14,1.08-.1,1.93.12,2.56.22.63.6.97,1.14,1.05.55.07,1.01-.16,1.39-.71Z"/>
    <path class="st6" d="M266.37,327.77l.09-.67,5.82.77c-.06.35-.18.95-.36,1.8-.18.85-.31,1.47-.4,1.85-.08.35-.19.62-.34.8-.14.18-.33.3-.57.35-.24.05-.55.06-.94,0l-1.31-.17-.03-.7,1.23.16c.3.04.53.04.7,0,.17-.04.3-.12.38-.24.09-.13.16-.33.23-.6.09-.4.2-.86.31-1.39.11-.52.2-.96.26-1.3l-2.9-.38-.08.36-.06.27c-.12.63-.29,1.16-.51,1.59-.22.43-.55.81-.99,1.16-.44.34-1.04.68-1.81,1.02l-.4-.71c.71-.26,1.26-.54,1.65-.82.4-.28.7-.6.9-.96.2-.36.37-.82.5-1.38l.13-.62-1.51-.2ZM269.47,323.6c-.49.85-1.06,1.59-1.7,2.22-.64.63-1.39,1.2-2.23,1.68l-.31-.67c.75-.41,1.43-.92,2.05-1.53.62-.61,1.16-1.3,1.61-2.06l.58.36ZM271.36,323.37c.21,1.02.52,1.88.94,2.58.42.7,1.01,1.37,1.78,2l-.47.63c-.81-.71-1.44-1.45-1.89-2.21-.45-.76-.79-1.7-1.02-2.82l.67-.18Z"/>
    <path class="st6" d="M277.54,324.38c-.15.41-.34.84-.55,1.26l1.87.25-.09.66-2.12-.28c-.22.38-.46.77-.72,1.15l2.37.31-.09.67-1.11-.15-.18,1.38,1.32.18-.09.69-1.32-.18-.3,2.26,1.39-.69.04.67-2.22,1.05-.21-.64c.13-.08.22-.15.27-.22.05-.06.08-.15.1-.27l.3-2.25-1.17-.16.09-.69,1.17.16.18-1.38-.69-.09.08-.57-.28.38-.34-.61c.65-.85,1.22-1.89,1.71-3.12l.6.22ZM282.14,324.87l-.26,1.98,2.12.28-.58,4.37-2.12-.28-.43,3.25-.63-.08.43-3.25-2.13-.28.58-4.37,2.13.28.26-1.98.63.08ZM279.66,327.21l-.4,3.04,1.5.2.4-3.04-1.5-.2ZM281.79,327.49l-.4,3.04,1.5.2.4-3.04-1.5-.2Z"/>
    <path class="st6" d="M181.29,332.12l.23.6-1.02.38.88.64-.37.52-.82-.73-.09,1.12-.61-.08.2-1.11-.97.49-.24-.6,1.03-.39-.89-.63.38-.52.81.73.1-1.12.61.08-.21,1.11.98-.49Z"/>
    <path class="st6" d="M185.58,331.51c-.29.73-.63,1.44-1.02,2.13l-.94,7.1-.65-.09.75-5.65c-.35.51-.72,1-1.13,1.47l-.16-.89c.43-.5.88-1.16,1.35-1.97.47-.81.87-1.61,1.18-2.41l.61.29ZM185.62,340.98l-.66-.09.46-3.47,4.97.66-.46,3.47-.66-.09.08-.62-3.65-.48-.08.62ZM191.8,333.39l-.09.68-6.33-.84.09-.68,2.9.39c-.07-.34-.17-.74-.29-1.22l.72-.05.05.24c.09.37.17.74.24,1.12l2.72.36ZM190.53,337.13l-5.02-.67.08-.63,5.02.67-.08.63ZM190.74,335.56l-5.02-.67.08-.61,5.02.67-.08.61ZM189.44,340.22l.21-1.58-3.65-.49-.21,1.58,3.65.49Z"/>
    <path class="st6" d="M191.95,341.16c.22-.3.44-.66.67-1.08.22-.42.42-.83.59-1.24l.57.3c-.16.4-.36.82-.59,1.26-.23.44-.47.82-.7,1.15l-.53-.39ZM200.54,334.27l-.66,4.99-6.46-.86.66-4.99,2.33.31c.08-.16.25-.5.49-1.03l.68.25c-.07.16-.21.45-.42.88l3.39.45ZM194.24,337l-.12.87,5.2.69.12-.87-5.2-.69ZM198.27,340.25l.61.26c-.09.51-.15.85-.2,1.02-.08.37-.22.62-.42.74-.2.12-.5.15-.92.09l-2.13-.28c-.4-.05-.67-.17-.81-.37-.14-.19-.18-.51-.12-.97l.22-1.65.67.09-.2,1.5c-.04.27-.01.45.07.56.08.11.25.18.5.21l1.74.23c.29.04.5.02.61-.04.11-.07.19-.22.23-.47l.16-.93ZM199.51,337.1l.11-.85-5.2-.69-.11.85,5.2.69ZM199.7,335.66l.12-.88-5.2-.69-.12.88,5.2.69ZM196.95,340.89c-.11-.24-.25-.51-.41-.83-.16-.32-.31-.58-.44-.79l.55-.32c.34.57.64,1.11.88,1.6l-.57.34ZM199.72,339.64c.3.58.66,1.4,1.1,2.48l-.62.28c-.12-.35-.29-.77-.5-1.26-.21-.49-.39-.89-.56-1.21l.57-.29Z"/>
    <path class="st6" d="M211.78,335.37l-.08.63-2.83-.38-.38,2.83,2.83.38-.08.63-7.14-.95-.15,1.1c-.11.84-.28,1.52-.5,2.04-.22.52-.57,1.08-1.07,1.68l-.54-.42c.32-.38.57-.73.75-1.05.18-.32.33-.67.44-1.05.11-.38.2-.86.28-1.43l.21-1.59,2.23.3.38-2.83-2.98-.4.08-.63,8.55,1.14ZM204.73,337.61c-.17-.32-.36-.67-.57-1.06-.21-.38-.38-.67-.5-.88l.56-.38c.45.77.81,1.4,1.08,1.89l-.56.42ZM206.43,338.18l1.38.18.38-2.83-1.38-.18-.38,2.83ZM209.07,337.75c.26-.22.54-.49.85-.8.31-.31.55-.58.72-.8l.47.47c-.19.23-.44.51-.77.85-.33.34-.6.6-.83.79l-.44-.51Z"/>
    <path class="st6" d="M221.27,340.93l-.31.63c-1.05-.45-1.9-.99-2.56-1.63-.83.47-1.85.81-3.03,1.03l-.17-.66-.11.11c-.29-.37-.51-.64-.66-.82l-.67,5.07-.63-.08.67-5.02c-.44.9-.92,1.66-1.43,2.29l-.24-.74c.33-.41.67-.92,1.02-1.53.35-.61.64-1.21.87-1.81l-1.17-.16.09-.69,1.19.16.27-2.05.63.08-.27,2.05,1.04.14-.09.69-1.04-.14-.12.92c.47.51.81.89,1.02,1.14l-.34.36c1.05-.17,1.96-.46,2.72-.85-.37-.45-.7-.97-.98-1.57-.33.37-.67.7-1.02.99l-.35-.55c.4-.32.83-.77,1.28-1.33.45-.56.8-1.08,1.05-1.55l.61.29c-.19.34-.37.61-.53.82l3.03.4-.08.63c-.58.83-1.24,1.5-1.98,2.01.6.53,1.37.98,2.3,1.35ZM216.09,345.05l-.63-.08.51-3.82,4.2.56-.51,3.82-.63-.08.09-.65-2.94-.39-.09.65ZM219.19,344.16l.25-1.91-2.94-.39-.25,1.91,2.94.39ZM218.49,339.09c.61-.4,1.18-.94,1.7-1.63l-2.62-.35c-.05.07-.11.15-.17.22.29.67.65,1.26,1.09,1.75Z"/>
    <path class="st6" d="M225.64,336.88c-.33.75-.69,1.46-1.08,2.15l-.94,7.04-.65-.09.75-5.64c-.37.52-.76,1.01-1.17,1.45l-.21-.77c.43-.5.89-1.17,1.41-2.01.51-.84.92-1.64,1.24-2.41l.65.28ZM228.53,342.81c.43,1.05,1.22,2.02,2.36,2.91l-.45.6c-1.04-.89-1.79-1.87-2.24-2.95l-.43,3.21-.68-.09.42-3.18c-.41.49-.86.91-1.34,1.27-.48.36-1.06.68-1.72.98l-.29-.65c.73-.31,1.33-.64,1.82-.98.49-.34.94-.77,1.35-1.28l-2.47-.33.09-.65,2.74.36.17-1.24-2.06-.27.43-3.25,4.84.64-.43,3.25-2.1-.28-.17,1.24,2.79.37-.09.65-2.54-.34ZM230.3,338.5l-3.5-.46-.25,1.9,3.5.46.25-1.9Z"/>
    <path class="st6" d="M235.8,344.29c-.31-.04-.54-.11-.69-.22-.16-.11-.25-.27-.28-.5-.7.17-1.48.32-2.35.46l-.15-.64c.93-.13,1.76-.29,2.5-.48v-.05s.32-2.34.32-2.34l.63.08-.28,2.12h0c.78-.21,1.48-.49,2.1-.82.63-.33,1.23-.72,1.81-1.18l.35.53c-.61.49-1.26.91-1.94,1.25-.68.34-1.45.64-2.3.88.04.08.1.15.19.19.09.04.23.08.4.1l1.64.22c.23.03.4.03.52,0,.12-.03.21-.1.27-.2.06-.1.11-.26.16-.49.05-.2.09-.42.12-.67l.61.25-.17.84c-.07.28-.15.5-.25.64-.1.14-.24.24-.41.28-.18.04-.41.05-.71,0l-2.08-.28ZM234.68,340.92c-.18.26-.43.56-.75.9-.31.34-.6.62-.87.86l-.4-.52c.27-.21.55-.47.84-.78.29-.31.53-.6.72-.86l.45.41ZM236.7,346.69l2.31.31.23-1.69.68.09-.37,2.77-.68-.09.06-.43-5.98-.8.3-2.28.69.09-.22,1.64,2.31.31.26-1.97.68.09-.26,1.97ZM234.04,339.41l-.16,1.19-.69-.09.24-1.83,3.68.49c-.09-.57-.15-.92-.18-1.05h.74s.19,1.15.19,1.15l3.45.46-.24,1.82-.7-.09.16-1.18-6.49-.86ZM236.63,339.79c.5.53.89,1,1.17,1.4l-.45.44c-.15-.22-.33-.46-.54-.72-.21-.26-.41-.5-.6-.7l.42-.41ZM239.95,341.77c.17.23.39.54.67.94.27.4.48.72.61.96l-.5.37c-.15-.26-.35-.59-.62-.99-.26-.4-.47-.7-.64-.91l.47-.38Z"/>
    <path class="st6" d="M243.01,349.03c.26-.09.45-.21.58-.37.13-.16.22-.37.25-.62l-.54-.07.14-1.02.97.13-.14,1.02c-.09.67-.45,1.13-1.1,1.36l-.17-.43Z"/>
    <path class="st6" d="M255.77,340.8c-.33.73-.69,1.43-1.09,2.11l-.95,7.18-.67-.09.77-5.76c-.46.64-.91,1.18-1.35,1.64l-.13-.92c.46-.49.95-1.14,1.46-1.96.52-.82.96-1.65,1.34-2.49l.63.29ZM260.75,350.33l-.51.63c-1.03-1-1.83-1.96-2.41-2.88-.83.74-1.92,1.45-3.25,2.14l-.35-.73c1.34-.67,2.41-1.36,3.21-2.07-.39-.74-.69-1.54-.89-2.38-.2-.84-.34-1.8-.41-2.89l.1-.74,4.88.65-.1.73c-.33,1.03-.7,1.92-1.12,2.69-.42.77-.93,1.46-1.52,2.06.54.86,1.33,1.79,2.37,2.79ZM256.83,342.24c.08.96.2,1.81.39,2.55.18.74.44,1.44.77,2.09.52-.55.96-1.16,1.33-1.83.36-.67.69-1.45.97-2.35l-3.46-.46Z"/>
    <path class="st6" d="M263.94,342.34l7.2.96-1.01,7.63c-.04.31-.11.54-.21.69-.1.16-.24.26-.42.3s-.43.05-.74,0l-1.03-.14v-.74s.93.12.93.12c.21.03.37.03.48.01.1-.02.18-.08.23-.16.05-.09.09-.23.11-.42l.21-1.55-2.6-.34-.38,2.89-.68-.09.38-2.89-2.59-.34c-.13.62-.3,1.15-.51,1.59-.21.44-.5.91-.87,1.42l-.58-.43c.34-.45.6-.84.78-1.18.17-.34.31-.73.42-1.18.11-.45.22-1.08.33-1.91l.56-4.25ZM266.49,347.91l.24-1.82-2.55-.34-.16,1.18c-.04.29-.07.51-.09.64l2.56.34ZM266.82,345.39l.25-1.92-2.55-.34-.25,1.92,2.55.34ZM267.41,346.18l-.24,1.82,2.6.34.24-1.82-2.6-.34ZM267.5,345.48l2.6.35.25-1.92-2.6-.34-.25,1.91Z"/>
    <path class="st6" d="M281.29,348.06l-.1.73-3.86-.51-.45,3.38c-.04.32-.12.57-.23.74-.11.17-.27.28-.49.34-.21.05-.5.06-.85.01l-1.37-.18-.03-.74,1.32.17c.34.04.57.02.7-.08.13-.1.21-.3.25-.61l.41-3.12-4.16-.55.1-.72,4.16.55.34-2.59-3.46-.46.1-.71,7.34.98-.1.72-3.16-.42-.34,2.59,3.86.51Z"/>
    <path class="st6" d="M282.06,352.31l3.03-.18-.05.73-2.99.18v-.74ZM282.76,348.19l-.04-.66c.64-.68,1.38-1.72,2.22-3.1l.53.33c-.33.53-.68,1.05-1.04,1.56s-.66.93-.92,1.23h1.32c.28-.37.5-.68.65-.92l.53.41c-.67.99-1.53,2.05-2.57,3.2l1.82-.05-.07.66-2.6.06-.05-.7c.69-.67,1.3-1.36,1.84-2.06l-1.61.02ZM290.88,352.29l-.25,1.47c-.06.35-.18.58-.35.7-.17.12-.46.15-.86.1l-.51-.07c-.36-.05-.6-.16-.73-.33-.13-.17-.17-.46-.11-.87l.44-3.33-1.07-.07c-.04.3-.07.5-.09.61-.12.7-.28,1.27-.48,1.71-.2.44-.47.82-.82,1.13-.35.31-.81.6-1.4.87l-.33-.63c.55-.24.98-.48,1.27-.73.29-.25.52-.56.68-.93.16-.37.3-.9.42-1.58l.07-.5-1.13-.08-.09-.65c.35-.26.72-.6,1.12-1.01.4-.41.77-.83,1.1-1.24l-1.84-.24.09-.66,2.39.32-.22-1.36.68-.04.25,1.49,2.38.32-.09.66-2.91-.39c-.31.38-.66.78-1.05,1.21-.39.43-.72.75-.97.97l3.27.26c-.22-.46-.39-.78-.49-.98-.04-.08-.11-.22-.21-.42l.54-.29c.34.64.8,1.55,1.38,2.73l-.56.3-.33-.69-.93-.06-.43,3.25c-.03.22-.02.37.04.45.05.08.18.12.37.15l.31.04c.24.03.4.02.48-.04.08-.06.14-.2.19-.42.07-.4.14-.85.21-1.35l.56.2Z"/>
    <path class="st6" d="M293.97,353.7l1.76-1.08.14.75-2.71,1.62-.29-.59c.13-.1.22-.18.27-.25.04-.07.07-.17.09-.29l.54-4.04-1.25-.17.1-.74,1.95.26-.6,4.53ZM294.92,348.41c-.51-.95-.94-1.71-1.28-2.26l.59-.38c.36.58.79,1.32,1.31,2.24l-.62.4ZM298.81,349.93l2.54.34-.1.73-2.54-.34-.7,5.3-.68-.09.7-5.3-2.61-.35.1-.73,2.61.35.47-3.55.68.09-.47,3.56Z"/>
    <path class="st6" d="M303.63,351.93l.09-.67,5.82.77c-.06.35-.18.95-.36,1.8-.18.85-.31,1.47-.4,1.85-.08.35-.19.62-.34.8-.14.18-.33.3-.57.35-.24.05-.55.06-.94,0l-1.31-.17-.03-.7,1.23.16c.3.04.53.04.7,0,.17-.04.3-.12.38-.24.09-.13.16-.33.23-.6.09-.4.2-.87.31-1.39.11-.52.2-.96.26-1.3l-2.9-.39-.08.36-.06.27c-.12.63-.29,1.16-.51,1.59-.22.43-.55.81-.99,1.16-.44.34-1.04.68-1.81,1.02l-.4-.71c.71-.26,1.26-.54,1.65-.82.4-.28.7-.6.9-.96.2-.36.37-.82.5-1.38l.13-.62-1.51-.2ZM306.73,347.75c-.49.85-1.06,1.59-1.7,2.22-.64.64-1.39,1.2-2.23,1.68l-.31-.67c.75-.41,1.43-.92,2.05-1.53.62-.61,1.16-1.3,1.61-2.06l.58.36ZM308.62,347.53c.21,1.02.52,1.88.94,2.58.42.7,1.01,1.37,1.78,2l-.47.63c-.81-.71-1.44-1.45-1.89-2.21-.45-.76-.79-1.7-1.02-2.82l.67-.18Z"/>
    <path class="st6" d="M315.44,354.35c-.31-.46-.63-.88-.95-1.26l-.66,4.99-.64-.08.69-5.15c-.43.87-.94,1.68-1.5,2.43l-.18-.82c.71-.88,1.33-1.98,1.88-3.29l-1.28-.17.09-.69,1.3.17.27-2.01.64.09-.27,2.01,1.3.17-.09.69-1.3-.17-.13,1.01c.57.68,1.01,1.2,1.29,1.58l-.45.51ZM321.35,353.13l-.09.71-1.54-.2-.68,5.08-.68-.09.68-5.08-2-.27c-.13.9-.26,1.62-.42,2.17-.15.55-.35,1.03-.6,1.46-.25.42-.6.88-1.04,1.37l-.49-.59c.43-.44.76-.85.99-1.23.23-.38.41-.83.55-1.36.13-.53.26-1.26.39-2.2l.42-3.14c1.53.09,2.98.05,4.35-.11l.08.74c-.58.07-1.22.11-1.9.13-.68.02-1.34.02-1.96,0l-.28,2.07,4.22.56Z"/>
    <path class="st6" d="M176.82,357.36l1.04-.78.06.77-1.78,1.27-.33-.58c.11-.09.19-.18.24-.25.05-.08.08-.17.09-.27l.53-4.01-.98-.13.09-.68,1.62.21-.59,4.45ZM177.64,352.03c-.11-.26-.25-.6-.44-1.01-.18-.41-.35-.77-.5-1.07l.58-.3c.12.24.29.57.49.99.2.42.36.77.48,1.05l-.61.34ZM178.14,359.11l.63-4.72,4.89.65-.49,3.68c-.05.36-.16.61-.33.73-.17.12-.46.16-.85.11l-1.03-.14-.03-.56.93.12c.19.02.32.03.41,0,.09-.02.15-.06.18-.13.03-.07.06-.18.08-.33l.06-.42-3.6-.48-.21,1.57-.64-.08ZM181.81,352.7l-.1.77,2.91.39-.07.54-6.4-.85.07-.54,2.83.38.1-.77-2.2-.29.07-.53,2.2.29.1-.74-2.52-.33.07-.55,2.52.34.11-.84.66.09-.11.84,2.63.35-.07.55-2.63-.35-.1.74,2.38.32-.07.53-2.38-.32ZM179.16,356.33l-.1.74,3.6.48.1-.74-3.6-.48ZM182.83,356.26l.1-.75-3.6-.48-.1.75,3.6.48Z"/>
    <path class="st6" d="M185.03,359.35c.42-.61.85-1.39,1.29-2.32l.57.27c-.18.42-.39.84-.62,1.28-.23.44-.45.81-.66,1.12l-.58-.34ZM188.75,351.05c-.28.53-.61,1.03-.98,1.51l-.55,4.1-.63-.08.42-3.16c-.32.33-.7.68-1.12,1.03l-.16-.75c.5-.43.96-.89,1.38-1.4.42-.51.76-1.01,1.03-1.52l.62.28ZM191.27,358.85l.06-.39.63.27-.21,1.07c-.08.39-.22.64-.43.75-.2.11-.52.13-.94.08l-2.05-.27c-.41-.05-.68-.17-.82-.36-.14-.19-.18-.5-.12-.95l.25-1.88.64.09-.23,1.69c-.04.28-.02.47.06.58.08.1.24.17.5.21l1.72.23c.29.04.49.02.6-.04.11-.07.19-.22.23-.47l.1-.59ZM190.12,354.39c-.24.37-.53.74-.87,1.11-.34.38-.67.7-.99.97l-.46-.46c.3-.25.62-.55.95-.91.33-.36.62-.72.87-1.09l.5.37ZM188.31,353.5c.4-.35.77-.74,1.1-1.17.34-.44.62-.87.86-1.3l.61.24c-.13.23-.31.53-.55.89l4.26.57-.08.63-.94,1.21-.57-.29.78-.99-3.9-.52c-.37.46-.75.86-1.12,1.21l-.46-.48ZM189.73,357.2c.14.2.29.45.48.75.18.29.32.54.43.73l-.55.37c-.12-.24-.41-.74-.86-1.49l.5-.35ZM191.57,356.16c-.05.37-.16.61-.35.74-.18.13-.47.16-.87.11l-.82-.11-.05-.67.77.1c.25.03.43.02.53-.05.1-.07.16-.22.19-.44l.3-2.27.64.09-.33,2.51ZM192.74,357.65c.17.33.36.74.59,1.23.23.49.42.94.59,1.34l-.61.32c-.14-.35-.32-.78-.55-1.29-.23-.52-.42-.95-.59-1.32l.57-.29ZM192.93,354.52c.58,1.03,1.01,1.83,1.31,2.4l-.57.32c-.43-.86-.86-1.66-1.27-2.4l.53-.33Z"/>
    <path class="st6" d="M199.46,356.44l-.16.88-.54,3.01c-.08.44-.21.73-.41.88-.19.15-.5.2-.91.14l-.82-.11-.03-.72.72.1c.27.04.47,0,.6-.09.13-.1.22-.27.27-.52.08-.38.17-.87.28-1.47.11-.61.2-1.1.26-1.47l-1.5-.2c-.14.8-.28,1.45-.43,1.96-.14.5-.32.95-.54,1.35-.21.4-.5.84-.87,1.33l-.51-.51c.38-.49.67-.95.88-1.38.21-.43.39-.94.54-1.52.15-.59.3-1.39.45-2.41.08-.42.15-.84.21-1.28l-.9-.12.1-.73,1.96.26c-.15-.83-.25-1.36-.3-1.58l.67-.1c.05.2.1.46.17.8s.12.66.18.98l1.44.19-.1.73-2.57-.34-.21,1.37-.05.3,2.11.28ZM203.84,361.94l-.5.6c-.75-.73-1.36-1.51-1.81-2.36-.61.64-1.45,1.26-2.5,1.85l-.36-.69c1.1-.57,1.95-1.18,2.55-1.82-.42-.98-.65-2.08-.68-3.29-.19.26-.4.52-.64.78l-.3-.72c.38-.39.77-.94,1.19-1.65.42-.71.74-1.39.97-2.03l.65.2c-.21.54-.45,1.06-.72,1.57l3.06.41-.1.75-.83-.11c-.22.93-.47,1.72-.75,2.39-.28.67-.63,1.27-1.05,1.8.42.81,1.03,1.59,1.82,2.33ZM201.7,358.93c.33-.46.61-.97.85-1.56.23-.58.44-1.26.62-2.04l-1.87-.25-.17.28c-.03,1.32.16,2.51.57,3.57Z"/>
    <path class="st6" d="M205.2,360.22c.28-.53.56-1.14.85-1.81.29-.67.54-1.34.77-2l.68.26c-.53,1.51-1.09,2.8-1.67,3.88l-.63-.33ZM208.29,361.21c-.03.25-.03.43,0,.57.03.13.11.23.23.3.12.07.3.11.54.15l1.21.16c.28.04.49.04.63,0,.14-.03.25-.1.32-.21.07-.11.13-.29.18-.53.05-.24.09-.52.14-.83.05-.31.08-.56.11-.76l.69.26-.29,1.67c-.07.35-.16.61-.29.8-.13.18-.3.3-.53.35-.23.05-.54.05-.93,0l-1.5-.2c-.37-.05-.65-.13-.85-.25-.2-.12-.33-.29-.4-.52-.07-.23-.08-.53-.03-.92l.75-5.63.74.1-.73,5.48ZM210.01,353.71c.23.39.5.92.84,1.59.33.66.6,1.24.81,1.71l-.66.38c-.18-.43-.43-.99-.75-1.66-.32-.68-.6-1.23-.82-1.65l.59-.37ZM213.11,357.04c.14.49.31,1.15.51,1.97.2.82.37,1.55.5,2.17l-.71.23c-.39-1.89-.7-3.27-.95-4.14l.66-.22Z"/>
    <path class="st6" d="M223.15,362.72l.86.11-.07.54-6.23-.83.06-.46c-.26.08-.53.15-.79.22-.89.24-1.48.4-1.75.5l-.09-.7c.23-.05.66-.17,1.27-.33l.48-3.63-1.1-.15.09-.68,1.1.15.35-2.62.62.08-.35,2.62,1.04.14-.09.68-1.04-.14-.45,3.37.94-.27.03.38.03.3-.13.04.68.09.65-4.9,1.94.26.11-.81-2.54-.34.07-.56,2.54.34.12-.88.63.08-.12.88,2.61.35-.07.56-2.61-.35-.11.81,1.96.26-.65,4.9ZM217.28,363.88c.48-.12.95-.26,1.42-.43.47-.17.88-.34,1.21-.52l.23.6c-.77.37-1.66.69-2.68.96l-.18-.61ZM222.65,361.88l-3.31-.44-.1.77,3.31.44.1-.77ZM222.71,361.37l.09-.69-3.31-.44-.09.69,3.31.44ZM219.56,359.74l3.31.44.09-.68-3.31-.44-.09.68ZM223.03,358.99l.1-.71-3.31-.44-.1.71,3.31.44ZM221.56,363.22l.38.25c.84.55,1.44.95,1.82,1.22l-.33.54c-.31-.23-.68-.5-1.11-.78-.43-.29-.79-.53-1.09-.72l.32-.51Z"/>
    <path class="st6" d="M225.45,362.69l6.16.82-.09.67-6.15-.82.09-.67ZM226.29,358.65l.28-2.1,7.9,1.05-.28,2.07-.69-.09.18-1.38-6.52-.87-.19,1.41-.69-.09ZM228.22,359.73l-.32,1.36,5.51.73-.05.28c-.04.22-.13.67-.26,1.38-.13.7-.21,1.11-.24,1.21-.08.37-.2.66-.35.87-.15.2-.36.34-.61.41-.26.07-.59.08-.99.02l-1.5-.2-.03-.68,1.43.19c.43.06.74.02.95-.11.2-.13.35-.38.44-.77.03-.1.09-.4.19-.9.1-.49.17-.87.22-1.14l-5.53-.74.88-3.7.68.09-.25,1.05,4.75.63-.09.64-4.81-.64Z"/>
  </g>
  <rect class="st9" x="49.73" y="210.56" width="116.69" height="159.63" rx="12.32" ry="12.32" transform="translate(39.21 -11.71) rotate(7.57)"/>
  <g>
    <path class="st7" d="M124,279.87c-9.62,3.3-15.55,10.62-19.02,20.45l-7.69,56.18.27.04c11.5-64.9,34.68-74.26,58.12-72.24v-.1s-31.68-4.33-31.68-4.33h0Z"/>
    <path class="st4" d="M115.56,224.25l-.18-.02-4.21,30.83c.7,10.4,4.45,19.05,12.83,24.81l31.69,4.33v-.08c-23.91-5.78-41.81-32.56-40.14-59.87Z"/>
    <path class="st4" d="M92.15,275.52s0,0,0,0l-31.69-4.33v.1c23.1,4.35,42.92,19.58,36.58,85.19l.27.04,7.68-56.19c-.7-10.39-4.45-19.03-12.82-24.79Z"/>
    <path class="st7" d="M92.15,275.51c9.62-3.3,15.55-10.62,19.01-20.45l4.22-30.84-.17-.02c-5.72,26.75-30.15,47.75-54.74,46.9v.08s31.67,4.33,31.67,4.33h0Z"/>
  </g>
  <g>
    <path class="st8" d="M107.19,36.55l-12.59-8.19c-3.12-2.03-7.06-2.71-10.84-1.87l-60.42,13.4c-7.42,1.65-12.2,8.57-10.67,15.46l29.71,133.92c1.53,6.89,8.78,11.14,16.21,9.5l199.2-44.19c7.42-1.65,12.2-8.57,10.67-15.46l-25.57-115.3c-1.53-6.89-8.78-11.14-16.21-9.5l-108.64,24.1c-3.78.84-7.72.16-10.84-1.87Z"/>
    <rect class="st0" x="30.83" y="47.66" width="231.57" height="153.68" rx="12.79" ry="12.79" transform="translate(-23.48 34.7) rotate(-12.51)"/>
  </g>
  <g class="st1">
    <path class="st6" d="M43.76,116.4l1.89,3.22-2.41.53-1.89-3.22,2.41-.53ZM41.51,121.84l3.98-.88,2.41,10.88.67-.4.46,2.09-2.87,1.77-2.62-11.79-1.59.35-.45-2.01ZM55.12,129.7l.92-2.1-.96-1.7-1.53-6.9-4.47.99.5,2.23,3.33-.74,1.92,8.67c.09.42.06.8-.1,1.15-.16.35-.4.56-.73.63l-1.64.36-.99-1.87,1.07-.24-1.37-6.19-1.04.23,1.02,4.61.77,5.2-2.42.54-.75-5.2-2.41-10.86,6.88-1.53-.55-2.48,2.31-.51.55,2.48,2.57-.57-.11,2.13-2.02.45,1.4,6.29,1.53-3.54.74,3.35-1.03,2.38,2.79,4.96-2.5.55-1.51-2.69-1.42,3.25-.74-3.35ZM56.95,113.66l.67,1.94-1.67.37-.67-1.94,1.67-.37Z"/>
    <path class="st6" d="M61.69,112.42l1.78,3.25-2.48.55-1.78-3.25,2.48-.55ZM59.81,117.78l3.57-.79,2.27,10.23v1.64s13.79-3.06,13.79-3.06l-.11,2.13-16.09,3.57.03-3.76-1.82-8.22-1.2.26-.45-2.01ZM64.52,120.67l2.56-.57-.26-.65-1.96.44-1.54-6.92,1.84-.41-.06-.9,2.28-.51.06.9,2.13-.47,1.2,5.4c.09.42.06.8-.1,1.15-.16.35-.4.56-.71.63l-.86.19.26.65,2.67-.59-.1,1.96-3.83.85.16.71,3.59-.8.74,3.35c.09.42.06.8-.1,1.15-.16.35-.4.56-.71.63l-2.13.47-.93-1.73,1.52-.34-.26-1.18-1.32.29.07,3.16-2.28.51-.08-3.24-.55-2.48-.89.2-.41-1.85ZM67.99,114.75l-.17-.77-1.9.42.17.77,1.9-.42ZM68.51,117.08l-.17-.77-1.9.42.17.77,1.9-.42ZM75.52,124.34l-.13,1.71-2.39.53.46-5.9-2.38-4.2,2.39-.53.32.57.05-.65-.52-2.35-2.82.62-.3-3.62,2.38-.53.14,1.72,3.46-.77-.1,1.96-.37.08.52,2.35-.38,4.81,2.91,5.15-2.39.53-.85-1.5Z"/>
    <path class="st6" d="M78.95,108.7l2.38-.53-.18,3.77.87-.19,1.55,6.98-2.45.54-1.19-5.38-1.23.27.25-5.47ZM81.72,124.01l-.76-3.41,2.39-.53.76,3.41.03,3.38-2.38.53-.04-3.38ZM82.75,107.85l2.47-.55-.02,1.28,8.73-1.94-.06,3.38-2.47.55.02-1.28-8.73,1.94.05-3.38ZM84.09,112.97l2.38-.53.24,5.59-2.39.53-.23-5.59ZM84.58,119.27l2.45-.54,1.14,5.14,5.82-1.29-.11,2.13-6.57,1.46c-.32.07-.62-.02-.91-.27-.29-.25-.48-.59-.58-1.02l-1.24-5.6ZM88.23,115.6l-1-4.53,2.45-.54,1,4.53.06,2.07-2.44.54-.07-2.07ZM88.64,118.9l2.39-.53.48,2.15.9,1.65-2.38.53-.91-1.65-.48-2.15ZM93.32,110.92l2.14,5.17-2.38.53-2.14-5.17,2.38-.53ZM93.19,117.89l2.39-.53.76,3.41,1.39,3.08-2.39.53-1.39-3.08-.76-3.41Z"/>
    <path class="st6" d="M98.09,116.46l1.58-1.05-1.31-5.89-1.73.38-.45-2.01,1.73-.38-.66-2.98,2.38-.53.66,2.98,1.93-.43-.11,2.13-1.38.31,1.1,4.97,1.55-1.05.5,2.23-1.55,1.05.72,3.25-.24,3.27-2.48.55.26-3.68-.43-1.95-1.58,1.05-.5-2.23ZM102.46,106.06l3.8-.84-.57-2.56,2.45-.54.57,2.56,3.89-.86,3.2,14.41c.1.43.06.82-.09,1.17-.16.35-.4.56-.73.63l-8.98,1.99-3.54-15.96ZM107.76,111.98l-1.05-4.75-1.41.31,1.05,4.75,1.41-.31ZM109.36,119.16l-1.15-5.18-1.41.31,1.15,5.18,1.41-.31ZM111.72,111.1l-1.05-4.75-1.5.33,1.05,4.75,1.5-.33ZM113.31,118.28l-1.15-5.18-1.5.33,1.15,5.18,1.5-.33Z"/>
    <path class="st6" d="M119.27,110.34l1.35,6.09,4.2-.93-1.75-7.9-6.3,1.4-1.59-7.17,2.44-.54,1.14,5.16,3.86-.86-1.41-6.38,2.45-.54,1.41,6.38,3.86-.86-1.14-5.16,2.44-.54,1.25,5.62c.09.42.06.81-.1,1.16-.16.35-.4.57-.73.64l-5.13,1.14,1.75,7.9,4.2-.93-1.35-6.09,2.44-.54,1.45,6.56c.09.42.06.8-.1,1.15-.16.35-.4.56-.73.63l-14.56,3.23-1.79-8.08,2.44-.54Z"/>
    <path class="st6" d="M136.34,113.18l6.91-1.53-1.01-4.57-5.52,1.22-.45-2.01,5.52-1.22-.66-2.96-5.96,1.32-.41-1.87-.8.18-.87-3.92,6.65-1.48-.43-1.14,2.65-.59.43,1.14,6.63-1.47.87,3.92-.81.18-.09,1.98-5.38,1.19.66,2.96,5.49-1.22-.11,2.13-4.93,1.09,1.01,4.57,6.99-1.55-.11,2.13-15.83,3.51-.45-2.01ZM147.51,98.58l-.4-1.79-11.19,2.48.4,1.79,11.19-2.48ZM149.01,106.4l1.55,2.77-2.42.54-1.53-2.77,2.41-.53Z"/>
    <path class="st6" d="M152.57,99.14l6.91-1.53-.17-.77-5.62,1.25-1.08-4.87,5.62-1.25-.2-.91,2.36-.52.2.91,5.62-1.25.74,3.33c.09.42.06.81-.1,1.16-.16.35-.4.57-.73.64l-4.46.99.17.77,6.91-1.53-.11,2.09-15.63,3.47-.44-1.97ZM158.08,107.01l-2.13.47-1.34-6.05,13.27-2.94,1.34,6.05-2.19.49,5.13,2.31-3.74.83-5.89-2.66,3.74-.83.54.24-.86-3.9-8.49,1.88.85,3.84,2.56-2.95-.25-1.12,2.36-.52.47,2.13-5.3,6.16-3.74.83,3.68-4.27ZM158.88,94.91l-.23-1.01-3.23.72.23,1.01,3.23-.72ZM164.48,93.67l-.23-1.01-3.23.72.23,1.01,3.23-.72Z"/>
    <path class="st6" d="M169.44,89.29l6.48-1.44,3.5,15.79c.09.42.06.8-.1,1.15-.16.35-.4.56-.73.63l-5.32,1.18-3.84-17.32ZM175.07,95.32l-1.09-4.93-1.72.38,1.09,4.93,1.72-.38ZM176.92,103.68l-1.41-6.35-1.72.38,1.41,6.35,1.72-.38ZM176.98,89.23l5.27-1.17-.5-2.27,2.45-.54.5,2.27,1.96-.43-.11,2.11-1.41.31,2.48,11.18-.04,3.23-2.45.54.04-3.23-2.48-11.18-5.27,1.17-.44-1.99ZM180.68,91.92l3.43,10.02-2.31.51-3.43-10.02,2.31-.51Z"/>
    <path class="st6" d="M190.51,83.84l1.53,2.83-2.59.57-1.53-2.84,2.59-.57ZM189.01,88.14l2.45-.54,3.27,14.74-2.45.54-3.27-14.74ZM201.9,83.96l-9.64,2.14-.44-1.99,12.09-2.68,3.42,15.41.02,2.7-2.44.54-.04-2.7-2.98-13.42ZM193.03,87.89l7.85-1.74,2.39,10.78c.08.35.05.67-.08.95-.13.29-.33.46-.59.51l-6.9,1.53-2.67-12.04ZM199.55,91.45l-.61-2.76-3.06.68.61,2.76,3.07-.68ZM200.71,96.7l-.72-3.25-3.06.68.72,3.25,3.07-.68Z"/>
    <path class="st6" d="M207.28,86.53l3.03-.67.43-1.46,2.71-.6-.43,1.46,11.14-2.47-.11,2.13-1.41.31,2.48,2.79-2.71.6-2.16-2.44.44,1.99-8.46,3.37-.45-2.01,8.45-3.36-.3-.34-7.59,1.68-1.04,3.49-2.71.6,1.04-3.49-1.92.42-.45-2.01ZM208.78,79.79l2.56-.57-.41,2.35,8.37-1.86-.95-1.37,2.54-.56,2.22,3.19-15.11,3.35.78-4.54ZM209.63,96.98l15.86-6.33.45,2.01-15.86,6.33-.45-2.01ZM210.49,93.38l11.79-4.68.44,1.99-11.79,4.7-.45-2.01Z"/>
    <path class="st6" d="M227.11,88.02l11.72-2.6-.11,2.13-11.17,2.48-.45-2.01ZM227.18,75.71l2.68-.59.2,2.3,11.52-2.56-.11,2.13-11.23,2.49.25,2.78,11.08-2.46,1.93,8.69-.17,3.06-2.67.59.21-3.56-1.38-6.23-11.48,2.55-.83-9.19Z"/>
    <path class="st6" d="M50.42,159.43c-.3-.25-.49-.59-.59-1.02l-1.95-8.77,8-1.77-1.17-5.28-8.06,1.79-.45-2.01,10.45-2.32,1.72,7.75c.09.42.06.81-.1,1.16-.16.35-.4.57-.73.64l-6.83,1.52,1.4,6.29,8.23-1.83-.03,2.12-8.98,1.99c-.32.07-.62-.02-.92-.26Z"/>
    <path class="st6" d="M58.72,139.57l10.91-2.42,3.57,16.08c.1.43.06.82-.09,1.17-.16.35-.4.56-.71.63l-9.76,2.17-3.91-17.62ZM70.72,153.29l-3.02-13.6-6.16,1.37,3.02,13.6,6.16-1.37Z"/>
    <path class="st6" d="M75.69,153.83c-.3-.25-.49-.59-.59-1.02l-1.95-8.77,8-1.77-1.17-5.28-8.06,1.79-.45-2.01,10.45-2.32,1.72,7.75c.09.42.06.81-.1,1.16-.16.35-.4.57-.73.64l-6.83,1.52,1.4,6.29,8.23-1.83-.03,2.12-8.98,1.99c-.32.07-.62-.02-.92-.26Z"/>
    <path class="st6" d="M87.46,149.58l7.86-1.74-1.4-6.29-6.7,1.49c-.32.07-.62-.02-.92-.28-.3-.25-.49-.59-.59-1.01l-1.72-7.75,10.48-2.32-.03,2.11-7.62,1.69,1.17,5.28,7.86-1.74,1.94,8.77c.1.43.06.82-.09,1.17-.16.35-.4.56-.73.63l-9.09,2.02-.45-2.01Z"/>
    <path class="st6" d="M106.91,142.9l-7.83,1.74-.45-2.01,1.78-.39-1.35-6.09,6.05-1.34-.61-2.76-7.19,1.59-.08-3.54,2.38-.53.03,1.44,13.36-2.96-.11,2.13-5.95,1.32.61,2.76,5.32-1.18-.11,2.13-4.77,1.06.9,4.08,6.65-1.48-.11,2.13-6.1,1.35.95,4.26-2.45.54-.95-4.26ZM106.46,140.89l-.91-4.08-3.62.8.91,4.08,3.62-.8Z"/>
    <path class="st6" d="M120.63,131.85l-1.49.33,1.77,7.96.32,4.06-2.5.55-.31-4.06-2.93-13.21,7.14-1.58-.52-1.31,2.59-.57.52,1.31,6.38-1.41-.11,2.13-1.95.43.27,1.24,2.16-.48-.11,2.13-1.61.36.39,1.75c.09.42.06.81-.1,1.16-.16.35-.39.57-.71.64l-8.49,1.88-.73-3.29ZM120.18,129.84l-.27-1.24-1.49.33.27,1.24,1.49-.33ZM121.61,141.92l2.55-1.35-1.9-.09-.43-1.93,5.62.27,2.65-1.4-.23-1.02-8.12,1.8-.45-2.01,10.51-2.33.95,4.28-1.6.84,3.02.14.42,1.91-6.74-.3-5.84,3.09-.42-1.91ZM127.45,128.22l-.27-1.24-4.87,1.08.27,1.24,4.87-1.08ZM128.18,131.51l-.28-1.28-4.87,1.08.28,1.28,4.87-1.08Z"/>
    <path class="st6" d="M135.35,121.83l2.64,3.86-2.54.56-2.64-3.86,2.54-.56ZM136.49,126.97l2.64,3.86-2.54.56-2.64-3.87,2.54-.56ZM137.42,134.72l-.52-2.36,2.45-.54.58,2.62-.52,5.72-2.54.56.55-6ZM137.72,122.13l2.31-.51-.21-.95,2.31-.51.21.95,2.59-.57-.21-.95,2.31-.51.21.95,2.57-.57-.08,2.13-2.05.45.24,1.08-2.31.51-.24-1.08-2.59.57.24,1.08-2.31.51-.24-1.08-2.31.51-.45-2.01ZM138.53,125.81l12.11-2.69-.08,2.13-2.94.65.27,1.2,3.03-.67,1.92,8.67.23,2.04-2.39.53-.21-2.04-1.45-6.52-.86.19.38,1.73.02,1.32,1.02.37.56,2.54-1.55-.55v1.81s-2.04.46-2.04.46v-1.36s-.96-.34-.96-.34l.02,1.91-1.81.4.34,1.54-2.38.53-2.36-10.66,3.03-.67-.27-1.2-3.2.71-.45-2.01ZM143.51,132.14l-.38-1.73-.86.19,1.29,5.81-.05-4.27ZM145.71,127.58l-.27-1.2-1.09.24.27,1.2,1.09-.24ZM146.52,133.26l-.03-1.78-.38-1.73-.93.21.38,1.73.02,1.23.94.34Z"/>
    <path class="st6" d="M152.06,121.93l4-.89-.65-.98-2.57.57-.43-1.93,5.95-1.32-.33-.78,2.48-.55.33.78,6.19-1.37-.09,2.04-2.02.45-.18,1.17,3.98-.88-.1,2.02-16.14,3.58-.42-1.91ZM154.3,124.06l13.3-2.95,1.17,5.28c.09.42.06.8-.1,1.15-.16.35-.4.56-.71.63l-12.15,2.7-1.51-6.8ZM155.89,134.27l-.55-2.48,2.39-.53.55,2.48v2.24s-2.39.53-2.39.53v-2.24ZM165.73,124.2l-.14-.65-8.43,1.87.14.65,8.43-1.87ZM166.25,126.54l-.14-.65-8.43,1.87.14.65,8.43-1.87ZM158.65,120.47l3.49-.77.17-1.17-4.32.96.65.98ZM159.03,130.78l2.44-.54.62,2.78,5.19-1.15-.11,2.13-5.93,1.32c-.32.07-.62-.02-.91-.28-.29-.25-.49-.59-.58-1.01l-.72-3.25ZM162.87,130.12l2.38-.53.21.93.38.92-2.38.53-.38-.92-.21-.93ZM167.26,129.15l2.39-.53.54,2.42.96,2.09-2.39.53-.96-2.09-.54-2.42Z"/>
    <path class="st6" d="M178.14,120.84l-3.03.67-.2,4.01-2.38.53.21-4.05,2.28-.51,2.43-5.8-7.23,1.6-.45-2.01,7.39-1.64-.58-1.15,2.53-.56.58,1.15,7-1.55-.11,2.13-6.53,1.45-1.47,3.52.6-.13.81-1.84,2.6-.58-1.8,4.06,2.33-.52,2.01,3.62-8.95,1.99,1.95-4.4ZM173.19,117.29l1.71,3.22-2.38.53-1.71-3.22,2.38-.53ZM172.64,128.21l7.25-1.61-.29-1.32,2.39-.53.29,1.32,7.28-1.62-.11,2.13-6.73,1.49.52,2.35-2.39.53-.52-2.35-7.25,1.61-.45-2.01ZM181.56,121.93l-.88-1.55-.86,1.94,1.73-.38ZM184.02,114.89l2.38-.53-.19,3.64-2.38.53.19-3.64ZM186.42,118.96l1.9,3.58-2.38.53-1.9-3.58,2.38-.53Z"/>
    <path class="st6" d="M191.15,109.26l2,3.2-2.42.54-2-3.2,2.42-.54ZM204.36,123.65l1.7-.38-3.13-14.13-6.94,1.54,2.18,9.85.95,6.39-2.39.53-.17-1.13-2.89,1.81-2.62-11.79-1.7.38-.45-2.01,4.08-.9,2.41,10.86.86-.53-.46-3.07-2.63-11.86,11.69-2.59,3.68,16.61c.1.43.06.82-.09,1.17-.16.35-.4.56-.73.63l-2.36.52-1-1.89ZM197.48,115.42l1.85-.41-.26-1.18-1.65.37-.45-2.01,1.65-.37-.23-1.02,2.48-.55.23,1.02,1.82-.4-.11,2.13-1.27.28.26,1.18,2.02-.45-.11,2.13-5.81,1.29-.45-2.01ZM198.56,118.16l5.27-1.17,1.03,4.63c.09.42.06.81-.1,1.16-.16.35-.4.57-.73.64l-4.11.91-1.37-6.17ZM202.59,121.72l-.52-2.33-.92.2.52,2.33.92-.2Z"/>
    <path class="st6" d="M210.06,108.54l-2.64.59-.45-2.01,6.83-1.52-.29-1.3,2.39-.53.29,1.3,6.97-1.55-.11,2.13-2.22.49,3.9,3.61-1.81.4,1.4,6.33c.09.42.06.8-.1,1.15-.16.35-.4.56-.73.63l-11.92,2.64-1.74-7.86-1.81.4,2.01-4.92ZM210,122.4l16.9-3.75-.11,2.13-16.35,3.63-.45-2.01ZM221.46,109.78l-3.29-3.04-1.52.34.65,2.94-2.39.53-.65-2.94-1.52.34-1.7,4.15,10.42-2.31ZM221.13,113.28l-.28-1.26-8.31,1.84.28,1.26,8.31-1.84ZM221.85,116.55l-.28-1.26-8.3,1.84.28,1.26,8.31-1.84Z"/>
  </g>
  <path class="st5" d="M324.37,39.56h42.97c5.35,0,9.69,4.34,9.69,9.69v73.7c0,5.35-4.34,9.69-9.69,9.69h-42.97c-5.35,0-9.69-4.34-9.69-9.69V49.26c0-5.35,4.34-9.69,9.69-9.69Z"/>
  <g class="st2">
    <rect class="st6" x="342.87" y="42.12" width="5.97" height="73.69"/>
    <polygon class="st6" points="345.85 129.39 322.32 111.5 369.38 111.5 345.85 129.39"/>
  </g>
</svg>