<?xml version="1.0" encoding="UTF-8"?>
<svg id="_图层_1" data-name="图层_1" xmlns="http://www.w3.org/2000/svg" xmlns:xlink="http://www.w3.org/1999/xlink" version="1.1" viewBox="0 0 225.41 88.41">
  <!-- Generator: Adobe Illustrator 29.6.0, SVG Export Plug-In . SVG Version: 2.1.1 Build 207)  -->
  <defs>
    <filter id="drop-shadow-1" x="17.77" y="19.77" width="194" height="54" filterUnits="userSpaceOnUse">
      <feOffset dx="3.23" dy="3.23"/>
      <feGaussianBlur result="blur" stdDeviation="2.31"/>
      <feFlood flood-color="#000" flood-opacity=".5"/>
      <feComposite in2="blur" operator="in"/>
      <feComposite in="SourceGraphic"/>
    </filter>
  </defs>
  <g>
    <path d="M32.83,41.21c-4.69-2.5-6.77-4.42-6.77-8.14s1.87-4.79,5.18-4.79c4.03,0,6.21,1.55,6.21,5.29v.82c0,.34.17.56.41.56h3c.24,0,.39-.22.39-.56v-1.1c0-6.61-3.85-9.64-9.85-9.64-5.53,0-9.08,3.07-9.08,9.51,0,6.76,3.99,9.72,8.55,12.16,4.65,2.61,6.81,4.88,6.81,8.37s-1.75,5.13-5.55,5.13c-4.18,0-6.58-1.41-6.58-5.08v-1.32c0-.34-.16-.56-.38-.56h-2.91c-.24,0-.4.22-.4.56v1.6c0,6.56,3.82,9.42,9.99,9.42s9.66-3.47,9.66-9.92c0-6.78-4.23-9.92-8.66-12.32Z" style="fill: #00b7eb; stroke: #00b7eb; stroke-miterlimit: 10; stroke-width: 18.45px;"/>
    <path d="M62.8,24.12h-17.95c-.24,0-.41.21-.41.54v3.57c0,.34.17.55.41.55h6.72c.07,0,.18.13.18.22v33.42c0,.35.13.57.37.57h3.04c.24,0,.39-.22.39-.57V29c0-.09.09-.22.16-.22h7.08c.23,0,.4-.21.4-.55v-3.57c0-.33-.17-.54-.4-.54Z" style="fill: #00b7eb; stroke: #00b7eb; stroke-miterlimit: 10; stroke-width: 18.45px;"/>
    <path d="M85.88,62.38l-8.8-37.83c-.08-.26-.29-.43-.48-.43h-3.99c-.19,0-.39.17-.48.43l-8.72,37.83c-.08.39.04.61.31.61h3.24c.2,0,.4-.17.47-.44l1.43-6.49c.04-.19.08-.19.17-.19h11.2c.08,0,.11,0,.15.19l1.44,6.49c.08.27.29.44.49.44h3.27c.28,0,.4-.22.31-.61ZM79.24,51.66h-9.22c-.11,0-.2-.16-.17-.29l4.64-20.88c.04-.15.2-.15.24,0l4.65,20.88c.06.12-.03.29-.14.29Z" style="fill: #00b7eb; stroke: #00b7eb; stroke-miterlimit: 10; stroke-width: 18.45px;"/>
    <path d="M109.77,62.32l-5.79-16.67c-.03-.1,0-.21.08-.28,3.43-1.21,5.5-5.05,5.5-10.21,0-6.59-3.18-11.04-8.01-11.04h-10.73c-.24,0-.4.21-.4.54v37.76c0,.35.15.57.4.57h3.04c.24,0,.39-.22.39-.57v-16.38c0-.1.08-.22.17-.22h5.74c.07,0,.12.07.15.16l5.58,16.59c.08.3.25.41.43.41h3.16c.28,0,.39-.28.28-.68ZM101.08,41.61h-6.66c-.1,0-.17-.11-.17-.24v-12.42c0-.13.08-.22.17-.22h6.66c2.78,0,4.65,2.59,4.65,6.49s-1.87,6.39-4.65,6.39Z" style="fill: #00b7eb; stroke: #00b7eb; stroke-miterlimit: 10; stroke-width: 18.45px;"/>
    <path d="M126.42,24.08h-10.75c-.24,0-.4.22-.4.55v37.83c0,.33.16.57.4.57h3.03c.24,0,.39-.24.39-.57v-15.78c0-.11.09-.22.16-.22h7.02c4.98,0,8.32-4.39,8.32-11.11s-3.26-11.27-8.17-11.27ZM125.9,42.13h-6.65c-.07,0-.16-.12-.16-.24v-12.98c0-.11.09-.22.16-.22h6.65c2.92,0,4.86,2.7,4.86,6.77s-1.94,6.66-4.86,6.66Z" style="fill: #00b7eb; stroke: #00b7eb; stroke-miterlimit: 10; stroke-width: 18.45px;"/>
    <path d="M155.22,58.4h-12.03c-.08,0-.17-.14-.17-.25V24.66c0-.33-.16-.54-.39-.54h-3.04c-.25,0-.39.21-.39.54v37.76c0,.35.14.57.39.57h15.63c.24,0,.41-.22.41-.57v-3.47c0-.34-.17-.55-.41-.55Z" style="fill: #00b7eb; stroke: #00b7eb; stroke-miterlimit: 10; stroke-width: 18.45px;"/>
    <path d="M177.97,23.89h-3.03c-.25,0-.41.23-.41.55v26.13c0,4.76-2.37,8.05-5.94,8.05s-5.97-3.29-5.97-8.05v-26.13c0-.32-.16-.55-.39-.55h-3.04c-.24,0-.4.23-.4.55v26c0,7.67,3.94,12.78,9.8,12.78s9.77-5.11,9.77-12.78v-26c0-.32-.16-.55-.39-.55Z" style="fill: #00b7eb; stroke: #00b7eb; stroke-miterlimit: 10; stroke-width: 18.45px;"/>
    <path d="M192.57,41.21c-4.71-2.5-6.78-4.42-6.78-8.14s1.87-4.79,5.18-4.79c4.03,0,6.22,1.55,6.22,5.29v.82c0,.34.15.56.39.56h2.99c.24,0,.4-.22.4-.56v-1.1c0-6.61-3.88-9.64-9.84-9.64-5.54,0-9.1,3.07-9.1,9.51,0,6.76,3.99,9.72,8.53,12.16,4.66,2.61,6.83,4.88,6.83,8.37s-1.78,5.13-5.56,5.13c-4.17,0-6.57-1.41-6.57-5.08v-1.32c0-.34-.16-.56-.39-.56h-2.93c-.23,0-.38.22-.38.56v1.6c0,6.56,3.82,9.42,9.99,9.42s9.64-3.47,9.64-9.92c0-6.78-4.22-9.92-8.64-12.32Z" style="fill: #00b7eb; stroke: #00b7eb; stroke-miterlimit: 10; stroke-width: 18.45px;"/>
  </g>
  <g style="filter: url(#drop-shadow-1);">
    <path d="M32.83,41.21c-4.69-2.5-6.77-4.42-6.77-8.14s1.87-4.79,5.18-4.79c4.03,0,6.21,1.55,6.21,5.29v.82c0,.34.17.56.41.56h3c.24,0,.39-.22.39-.56v-1.1c0-6.61-3.85-9.64-9.85-9.64-5.53,0-9.08,3.07-9.08,9.51,0,6.76,3.99,9.72,8.55,12.16,4.65,2.61,6.81,4.88,6.81,8.37s-1.75,5.13-5.55,5.13c-4.18,0-6.58-1.41-6.58-5.08v-1.32c0-.34-.16-.56-.38-.56h-2.91c-.24,0-.4.22-.4.56v1.6c0,6.56,3.82,9.42,9.99,9.42s9.66-3.47,9.66-9.92c0-6.78-4.23-9.92-8.66-12.32Z" style="fill: #fff;"/>
    <path d="M62.8,24.12h-17.95c-.24,0-.41.21-.41.54v3.57c0,.34.17.55.41.55h6.72c.07,0,.18.13.18.22v33.42c0,.35.13.57.37.57h3.04c.24,0,.39-.22.39-.57V29c0-.09.09-.22.16-.22h7.08c.23,0,.4-.21.4-.55v-3.57c0-.33-.17-.54-.4-.54Z" style="fill: #fff;"/>
    <path d="M85.88,62.38l-8.8-37.83c-.08-.26-.29-.43-.48-.43h-3.99c-.19,0-.39.17-.48.43l-8.72,37.83c-.08.39.04.61.31.61h3.24c.2,0,.4-.17.47-.44l1.43-6.49c.04-.19.08-.19.17-.19h11.2c.08,0,.11,0,.15.19l1.44,6.49c.08.27.29.44.49.44h3.27c.28,0,.4-.22.31-.61ZM79.24,51.66h-9.22c-.11,0-.2-.16-.17-.29l4.64-20.88c.04-.15.2-.15.24,0l4.65,20.88c.06.12-.03.29-.14.29Z" style="fill: #fff;"/>
    <path d="M109.77,62.32l-5.79-16.67c-.03-.1,0-.21.08-.28,3.43-1.21,5.5-5.05,5.5-10.21,0-6.59-3.18-11.04-8.01-11.04h-10.73c-.24,0-.4.21-.4.54v37.76c0,.35.15.57.4.57h3.04c.24,0,.39-.22.39-.57v-16.38c0-.1.08-.22.17-.22h5.74c.07,0,.12.07.15.16l5.58,16.59c.08.3.25.41.43.41h3.16c.28,0,.39-.28.28-.68ZM101.08,41.61h-6.66c-.1,0-.17-.11-.17-.24v-12.42c0-.13.08-.22.17-.22h6.66c2.78,0,4.65,2.59,4.65,6.49s-1.87,6.39-4.65,6.39Z" style="fill: #fff;"/>
    <path d="M126.42,24.08h-10.75c-.24,0-.4.22-.4.55v37.83c0,.33.16.57.4.57h3.03c.24,0,.39-.24.39-.57v-15.78c0-.11.09-.22.16-.22h7.02c4.98,0,8.32-4.39,8.32-11.11s-3.26-11.27-8.17-11.27ZM125.9,42.13h-6.65c-.07,0-.16-.12-.16-.24v-12.98c0-.11.09-.22.16-.22h6.65c2.92,0,4.86,2.7,4.86,6.77s-1.94,6.66-4.86,6.66Z" style="fill: #fff;"/>
    <path d="M155.22,58.4h-12.03c-.08,0-.17-.14-.17-.25V24.66c0-.33-.16-.54-.39-.54h-3.04c-.25,0-.39.21-.39.54v37.76c0,.35.14.57.39.57h15.63c.24,0,.41-.22.41-.57v-3.47c0-.34-.17-.55-.41-.55Z" style="fill: #fff;"/>
    <path d="M177.97,23.89h-3.03c-.25,0-.41.23-.41.55v26.13c0,4.76-2.37,8.05-5.94,8.05s-5.97-3.29-5.97-8.05v-26.13c0-.32-.16-.55-.39-.55h-3.04c-.24,0-.4.23-.4.55v26c0,7.67,3.94,12.78,9.8,12.78s9.77-5.11,9.77-12.78v-26c0-.32-.16-.55-.39-.55Z" style="fill: #fff;"/>
    <path d="M192.57,41.21c-4.71-2.5-6.78-4.42-6.78-8.14s1.87-4.79,5.18-4.79c4.03,0,6.22,1.55,6.22,5.29v.82c0,.34.15.56.39.56h2.99c.24,0,.4-.22.4-.56v-1.1c0-6.61-3.88-9.64-9.84-9.64-5.54,0-9.1,3.07-9.1,9.51,0,6.76,3.99,9.72,8.53,12.16,4.66,2.61,6.83,4.88,6.83,8.37s-1.78,5.13-5.56,5.13c-4.17,0-6.57-1.41-6.57-5.08v-1.32c0-.34-.16-.56-.39-.56h-2.93c-.23,0-.38.22-.38.56v1.6c0,6.56,3.82,9.42,9.99,9.42s9.64-3.47,9.64-9.92c0-6.78-4.22-9.92-8.64-12.32Z" style="fill: #fff;"/>
  </g>
</svg>